<svg width="29" height="29" viewBox="0 0 29 29" fill="none" xmlns="http://www.w3.org/2000/svg">
<path opacity="0.5" d="M7.13843 11.2629H11.8389" stroke="black" stroke-opacity="0.29" stroke-width="1.76266" stroke-linecap="round" stroke-linejoin="round"/>
<path d="M24.569 12.4381H21.5114C19.4138 12.4381 17.7146 14.0163 17.7146 15.9634C17.7146 17.9106 19.415 19.4887 21.5102 19.4887H24.569C24.6677 19.4887 24.7159 19.4887 24.757 19.4864C25.3916 19.4476 25.8969 18.9787 25.938 18.39C25.9403 18.3524 25.9403 18.3066 25.9403 18.2161V13.7108C25.9403 13.6203 25.9403 13.5744 25.938 13.5368C25.8957 12.9481 25.3916 12.4792 24.757 12.4405C24.7159 12.4381 24.6677 12.4381 24.569 12.4381Z" stroke="black" stroke-opacity="0.29" stroke-width="1.76266"/>
<path d="M24.7239 12.438C24.6322 10.2382 24.3384 8.88921 23.3878 7.93972C22.0117 6.5625 19.7955 6.5625 15.3642 6.5625H11.8388C7.40751 6.5625 5.19126 6.5625 3.81521 7.93972C2.43916 9.31695 2.43799 11.532 2.43799 15.9633C2.43799 20.3947 2.43799 22.6109 3.81521 23.987C5.19244 25.363 7.40751 25.3642 11.8388 25.3642H15.3642C19.7955 25.3642 22.0117 25.3642 23.3878 23.987C24.3384 23.0375 24.6334 21.6885 24.7239 19.4887" stroke="black" stroke-opacity="0.29" stroke-width="1.76266"/>
<path opacity="0.5" d="M7.13843 6.56249L11.5274 3.65175C12.1448 3.25069 12.8653 3.03723 13.6015 3.03723C14.3377 3.03723 15.0582 3.25069 15.6756 3.65175L20.0646 6.56249" stroke="black" stroke-opacity="0.29" stroke-width="1.76266" stroke-linecap="round"/>
<path opacity="0.5" d="M21.2292 15.9634H21.2382" stroke="black" stroke-opacity="0.29" stroke-width="2.35021" stroke-linecap="round" stroke-linejoin="round"/>
</svg>
