<svg width="25" height="26" viewBox="0 0 25 26" fill="none" xmlns="http://www.w3.org/2000/svg">
<g clip-path="url(#clip0_144_1593)">
<path d="M7.32086 15.0646C7.87061 15.0646 8.39784 14.8462 8.78656 14.4575C9.17529 14.0687 9.39368 13.5415 9.39368 12.9918C9.39368 12.442 9.17529 11.9148 8.78656 11.5261C8.39784 11.1373 7.87061 10.9189 7.32086 10.9189C6.77112 10.9189 6.24389 11.1373 5.85516 11.5261C5.46643 11.9148 5.24805 12.442 5.24805 12.9918C5.24805 13.5415 5.46643 14.0687 5.85516 14.4575C6.24389 14.8462 6.77112 15.0646 7.32086 15.0646ZM14.5757 12.9918C14.5757 13.5415 14.3573 14.0687 13.9686 14.4575C13.5799 14.8462 13.0526 15.0646 12.5029 15.0646C11.9532 15.0646 11.4259 14.8462 11.0372 14.4575C10.6485 14.0687 10.4301 13.5415 10.4301 12.9918C10.4301 12.442 10.6485 11.9148 11.0372 11.5261C11.4259 11.1373 11.9532 10.9189 12.5029 10.9189C13.0526 10.9189 13.5799 11.1373 13.9686 11.5261C14.3573 11.9148 14.5757 12.442 14.5757 12.9918ZM17.6849 15.0646C18.2347 15.0646 18.7619 14.8462 19.1506 14.4575C19.5394 14.0687 19.7578 13.5415 19.7578 12.9918C19.7578 12.442 19.5394 11.9148 19.1506 11.5261C18.7619 11.1373 18.2347 10.9189 17.6849 10.9189C17.1352 10.9189 16.608 11.1373 16.2192 11.5261C15.8305 11.9148 15.6121 12.442 15.6121 12.9918C15.6121 13.5415 15.8305 14.0687 16.2192 14.4575C16.608 14.8462 17.1352 15.0646 17.6849 15.0646Z" fill="black" fill-opacity="0.2"/>
<path fill-rule="evenodd" clip-rule="evenodd" d="M24.9404 12.9932C24.9404 19.8614 19.3718 25.4301 12.5035 25.4301C5.63527 25.4301 0.0666504 19.8614 0.0666504 12.9932C0.0666504 6.12489 5.63527 0.556274 12.5035 0.556274C19.3718 0.556274 24.9404 6.12489 24.9404 12.9932ZM22.8676 12.9932C22.8676 18.7172 18.2276 23.3572 12.5035 23.3572C6.77946 23.3572 2.13947 18.7172 2.13947 12.9932C2.13947 7.26909 6.77946 2.62909 12.5035 2.62909C18.2276 2.62909 22.8676 7.26909 22.8676 12.9932Z" fill="black" fill-opacity="0.22"/>
</g>
<defs>
<clipPath id="clip0_144_1593">
<rect width="24.8738" height="24.8738" fill="white" transform="translate(0.0703125 0.561279)"/>
</clipPath>
</defs>
</svg>
