<svg width="29" height="29" viewBox="0 0 29 29" fill="none" xmlns="http://www.w3.org/2000/svg">
<g clip-path="url(#clip0_302_1061)">
<path d="M9.80073 14.8293C9.23607 14.8293 8.68409 14.9968 8.2146 15.3105C7.7451 15.6242 7.37917 16.0701 7.16308 16.5918C6.947 17.1134 6.89046 17.6875 7.00062 18.2413C7.11078 18.7951 7.38269 19.3038 7.78196 19.7031C8.18124 20.1024 8.68995 20.3743 9.24376 20.4844C9.79757 20.5946 10.3716 20.5381 10.8933 20.322C11.415 20.1059 11.8609 19.74 12.1746 19.2705C12.4883 18.801 12.6557 18.249 12.6557 17.6843C12.6557 16.9271 12.3549 16.201 11.8195 15.6655C11.2841 15.1301 10.5579 14.8293 9.80073 14.8293ZM9.80073 19.2216C9.49669 19.2216 9.19947 19.1314 8.94666 18.9625C8.69385 18.7936 8.49682 18.5535 8.38046 18.2726C8.26411 17.9917 8.23366 17.6826 8.29298 17.3844C8.3523 17.0862 8.49871 16.8123 8.7137 16.5973C8.9287 16.3823 9.20262 16.2359 9.50082 16.1766C9.79903 16.1172 10.1081 16.1477 10.389 16.264C10.6699 16.3804 10.91 16.5774 11.0789 16.8302C11.2479 17.083 11.338 17.3803 11.338 17.6843C11.338 18.092 11.1761 18.483 10.8878 18.7713C10.5995 19.0596 10.2085 19.2216 9.80073 19.2216ZM27.3698 13.9509H24.4962C24.3279 11.0401 23.0313 8.3097 20.8818 6.33983C18.7323 4.36995 15.8993 3.31592 12.985 3.40171C10.0706 3.48749 7.30461 4.70634 5.27469 6.79924C3.24478 8.89214 2.11099 11.6941 2.11426 14.6097V17.2451C2.11659 19.283 2.92716 21.2367 4.36815 22.6777C5.80914 24.1187 7.76287 24.9292 9.80073 24.9316H14.193C16.2309 24.9292 18.1846 24.1187 19.6256 22.6777C21.0666 21.2367 21.8771 19.283 21.8795 17.2451V15.2686H27.3698C27.5445 15.2686 27.7121 15.1992 27.8357 15.0756C27.9592 14.952 28.0287 14.7845 28.0287 14.6097C28.0287 14.435 27.9592 14.2674 27.8357 14.1439C27.7121 14.0203 27.5445 13.9509 27.3698 13.9509ZM20.5618 17.2451C20.5598 18.9336 19.8881 20.5523 18.6942 21.7463C17.5002 22.9402 15.8815 23.6118 14.193 23.6139H14.0997C15.1423 22.9105 15.9963 21.962 16.587 20.8516C17.1776 19.7412 17.4867 18.5028 17.4872 17.2451V15.2686H20.5618V17.2451ZM16.8284 13.9509C16.6536 13.9509 16.4861 14.0203 16.3625 14.1439C16.2389 14.2674 16.1695 14.435 16.1695 14.6097V17.2451C16.1695 18.9342 15.4985 20.5541 14.3041 21.7485C13.1098 22.9429 11.4898 23.6139 9.80073 23.6139C8.11163 23.6139 6.4917 22.9429 5.29732 21.7485C4.10294 20.5541 3.43195 18.9342 3.43195 17.2451V14.6097C3.43185 12.0457 4.42828 9.58201 6.21079 7.73895C7.9933 5.8959 10.4224 4.81777 12.9849 4.73225C15.5475 4.64674 18.0431 5.56053 19.9445 7.28065C21.8459 9.00078 23.0044 11.3926 23.1752 13.9509H16.8284Z" fill="#ACACAC"/>
</g>
<defs>
<clipPath id="clip0_302_1061">
<rect width="28.1105" height="28.1105" fill="white" transform="translate(0.137695 0.554565)"/>
</clipPath>
</defs>
</svg>
