<svg width="33" height="33" viewBox="0 0 33 33" fill="none" xmlns="http://www.w3.org/2000/svg">
<path d="M8.31453 9.86133C8.05467 9.86133 7.80545 9.96456 7.6217 10.1483C7.43795 10.3321 7.33472 10.5813 7.33472 10.8411C7.33472 11.101 7.43795 11.3502 7.6217 11.534C7.80545 11.7177 8.05467 11.821 8.31453 11.821H13.5402C13.8001 11.821 14.0493 11.7177 14.233 11.534C14.4168 11.3502 14.52 11.101 14.52 10.8411C14.52 10.5813 14.4168 10.3321 14.233 10.1483C14.0493 9.96456 13.8001 9.86133 13.5402 9.86133H8.31453Z" fill="url(#paint0_linear_302_1024)"/>
<path fill-rule="evenodd" clip-rule="evenodd" d="M28.4828 11.173C28.401 11.1687 28.3139 11.1669 28.2215 11.1678H24.5988C21.632 11.1678 19.0923 13.4358 19.0923 16.3935C19.0923 19.3512 21.632 21.6192 24.5988 21.6192H28.2215C28.3139 21.62 28.401 21.6183 28.4828 21.6139C29.6886 21.5408 30.7547 20.625 30.8448 19.3447C30.8501 19.2611 30.8501 19.1709 30.8501 19.0873V13.6997C30.8501 13.616 30.8501 13.5259 30.8448 13.4423C30.7547 12.162 29.6886 11.2475 28.4828 11.173ZM24.2801 17.7874C25.043 17.7874 25.6623 17.163 25.6623 16.3935C25.6623 15.6227 25.043 14.9995 24.2801 14.9995C23.5171 14.9995 22.8953 15.624 22.8953 16.3935C22.8953 17.1643 23.5158 17.7874 24.2801 17.7874Z" fill="url(#paint1_linear_302_1024)"/>
<path opacity="0.5" d="M28.4201 11.1704C28.4201 9.62757 28.3626 7.97233 27.3776 6.78741C27.281 6.67159 27.1795 6.56001 27.0732 6.45297C26.0947 5.47577 24.8549 5.04204 23.3238 4.83562C21.8345 4.63574 19.9336 4.63574 17.5324 4.63574H14.7733C12.3721 4.63574 10.4699 4.63574 8.98063 4.83562C7.4495 5.04204 6.20971 5.47577 5.23121 6.45297C4.254 7.43148 3.82027 8.67127 3.61386 10.2024C3.41528 11.6917 3.41528 13.5925 3.41528 15.9937V16.1401C3.41528 18.5413 3.41528 20.4434 3.61517 21.9314C3.82158 23.4625 4.25531 24.7023 5.23251 25.6808C6.21102 26.658 7.45081 27.0918 8.98193 27.2982C10.4713 27.4981 12.3721 27.4981 14.7733 27.4981H17.5324C19.9336 27.4981 21.8358 27.4981 23.3238 27.2982C24.8549 27.0918 26.0947 26.658 27.0732 25.6808C27.3389 25.4126 27.5679 25.1252 27.7604 24.8186C28.3483 23.878 28.4188 22.7257 28.4188 21.6179L28.2229 21.6192H24.5989C21.632 21.6192 19.0923 19.3512 19.0923 16.3935C19.0923 13.4358 21.632 11.1678 24.5989 11.1678H28.2216C28.2904 11.1678 28.3574 11.1687 28.4201 11.1704Z" fill="url(#paint2_linear_302_1024)"/>
<defs>
<linearGradient id="paint0_linear_302_1024" x1="7.33472" y1="10.8411" x2="14.52" y2="10.8411" gradientUnits="userSpaceOnUse">
<stop stop-color="#F59E0B"/>
<stop offset="1" stop-color="#E61D2A"/>
</linearGradient>
<linearGradient id="paint1_linear_302_1024" x1="19.0923" y1="16.3935" x2="30.8501" y2="16.3935" gradientUnits="userSpaceOnUse">
<stop stop-color="#F59E0B"/>
<stop offset="1" stop-color="#E61D2A"/>
</linearGradient>
<linearGradient id="paint2_linear_302_1024" x1="3.41528" y1="16.0669" x2="28.4201" y2="16.0669" gradientUnits="userSpaceOnUse">
<stop stop-color="#F59E0B"/>
<stop offset="1" stop-color="#E61D2A"/>
</linearGradient>
</defs>
</svg>
