<svg width="33" height="31" viewBox="0 0 33 31" fill="none" xmlns="http://www.w3.org/2000/svg">
<path fill-rule="evenodd" clip-rule="evenodd" d="M16.3848 2.8147C23.5847 2.8147 29.4211 8.46393 29.4211 15.433C29.4211 22.4022 23.5847 28.0514 16.3848 28.0514C9.18477 28.0514 3.34839 22.4022 3.34839 15.433C3.34839 8.46393 9.18477 2.8147 16.3848 2.8147ZM22.2511 13.5403C21.7325 13.5403 21.2351 13.7397 20.8684 14.0947C20.5017 14.4496 20.2957 14.9311 20.2957 15.433C20.2957 15.935 20.5017 16.4165 20.8684 16.7714C21.2351 17.1264 21.7325 17.3258 22.2511 17.3258C22.7697 17.3258 23.2671 17.1264 23.6338 16.7714C24.0006 16.4165 24.2066 15.935 24.2066 15.433C24.2066 14.9311 24.0006 14.4496 23.6338 14.0947C23.2671 13.7397 22.7697 13.5403 22.2511 13.5403ZM16.3848 13.5403C15.8661 13.5403 15.3688 13.7397 15.002 14.0947C14.6353 14.4496 14.4293 14.9311 14.4293 15.433C14.4293 15.935 14.6353 16.4165 15.002 16.7714C15.3688 17.1264 15.8661 17.3258 16.3848 17.3258C16.9034 17.3258 17.4008 17.1264 17.7675 16.7714C18.1342 16.4165 18.3402 15.935 18.3402 15.433C18.3402 14.9311 18.1342 14.4496 17.7675 14.0947C17.4008 13.7397 16.9034 13.5403 16.3848 13.5403ZM10.5184 13.5403C9.99977 13.5403 9.5024 13.7397 9.13568 14.0947C8.76896 14.4496 8.56294 14.9311 8.56294 15.433C8.56294 15.935 8.76896 16.4165 9.13568 16.7714C9.5024 17.1264 9.99977 17.3258 10.5184 17.3258C11.037 17.3258 11.5344 17.1264 11.9011 16.7714C12.2678 16.4165 12.4738 15.935 12.4738 15.433C12.4738 14.9311 12.2678 14.4496 11.9011 14.0947C11.5344 13.7397 11.037 13.5403 10.5184 13.5403Z" fill="url(#paint0_linear_144_1632)"/>
<defs>
<linearGradient id="paint0_linear_144_1632" x1="16.3848" y1="2.8147" x2="16.3848" y2="28.0514" gradientUnits="userSpaceOnUse">
<stop stop-color="#F59E0B"/>
<stop offset="1" stop-color="#E61D2A"/>
</linearGradient>
</defs>
</svg>
