<svg width="28" height="23" viewBox="0 0 28 23" fill="none" xmlns="http://www.w3.org/2000/svg">
<path d="M26.3697 10.9849H23.7014C23.4772 8.03869 22.1198 5.29412 19.9144 3.32778C17.709 1.36143 14.8274 0.326389 11.8749 0.440111C8.92241 0.553832 6.12891 1.80747 4.08134 3.93762C2.03376 6.06777 0.891496 8.90863 0.894537 11.8633V14.4987C0.896862 16.5948 1.73057 18.6044 3.21274 20.0865C4.69492 21.5687 6.70451 22.4024 8.80062 22.4048H13.1929C15.289 22.4024 17.2986 21.5687 18.7808 20.0865C20.2629 18.6044 21.0966 16.5948 21.099 14.4987V12.7418H26.3697C26.6027 12.7418 26.8261 12.6492 26.9909 12.4845C27.1556 12.3197 27.2482 12.0963 27.2482 11.8633C27.2482 11.6303 27.1556 11.4069 26.9909 11.2421C26.8261 11.0774 26.6027 10.9849 26.3697 10.9849ZM8.80062 17.5733C8.2794 17.5733 7.76988 17.4187 7.33649 17.1291C6.90311 16.8395 6.56533 16.428 6.36586 15.9464C6.1664 15.4649 6.11421 14.935 6.2159 14.4238C6.31758 13.9125 6.56858 13.443 6.93714 13.0744C7.3057 12.7058 7.77528 12.4549 8.28649 12.3532C8.7977 12.2515 9.32758 12.3037 9.80913 12.5031C10.2907 12.7026 10.7023 13.0404 10.9918 13.4738C11.2814 13.9071 11.436 14.4167 11.436 14.9379C11.436 15.6368 11.1583 16.3071 10.6641 16.8014C10.1699 17.2956 9.49956 17.5733 8.80062 17.5733ZM19.3421 14.4987C19.3404 16.0237 18.7728 17.4938 17.7491 18.6242C16.7254 19.7546 15.3186 20.4648 13.8012 20.6171C14.7093 19.8769 15.4412 18.9437 15.9437 17.8854C16.4463 16.8271 16.7069 15.6702 16.7067 14.4987V12.7418H19.3421V14.4987Z" fill="url(#paint0_linear_302_1040)"/>
<defs>
<linearGradient id="paint0_linear_302_1040" x1="0.894531" y1="11.4182" x2="27.2482" y2="11.4182" gradientUnits="userSpaceOnUse">
<stop stop-color="#F59E0B"/>
<stop offset="1" stop-color="#E61D2A"/>
</linearGradient>
</defs>
</svg>
