<svg width="93" height="99" viewBox="0 0 93 99" fill="none" xmlns="http://www.w3.org/2000/svg">
<path d="M85.0375 91.5082C84.7114 90.2706 84.1838 89.0331 83.4547 87.7763L79.8284 81.5022L62.4545 51.4937L51.9113 33.2853L51.4891 32.5466C50.8271 31.3953 50.0406 30.3401 49.1292 29.3615C48.2274 28.383 47.2871 27.6155 46.3182 27.0591L43.325 25.3322L32.187 18.9046L20.2623 12.0165C18.4682 10.9804 16.9046 10.7405 15.5807 11.2778L15.1297 11.4984C13.7099 12.3139 13 13.868 13 16.1513V46.0542C13 47.167 13.1823 48.3279 13.5373 49.5462C13.9018 50.7646 14.4199 51.9445 15.0818 53.0957L47.1336 108.383C47.8627 109.63 48.6782 110.733 49.5896 111.674C50.4914 112.614 51.4027 113.343 52.3141 113.871C53.2159 114.389 54.1273 114.705 55.0387 114.811C55.9405 114.926 56.7559 114.772 57.485 114.36L73.6692 105.131L83.4547 99.5474C84.1838 99.1349 84.7114 98.5209 85.0375 97.7055C85.3733 96.89 85.546 95.9595 85.546 94.9234C85.546 93.8874 85.3733 92.7457 85.0375 91.5082ZM33.6548 42.3319C33.5205 42.4662 33.3671 42.5718 33.1944 42.6677C32.1391 43.2721 30.8535 43.1378 29.3377 42.2648C27.8219 41.3918 26.5364 40.0391 25.4811 38.2067C24.4258 36.384 23.8886 34.5996 23.8886 32.8631C23.8886 31.1267 24.4258 29.9562 25.4811 29.3518C26.5364 28.7474 27.8219 28.8818 29.3377 29.7549C30.4026 30.3688 31.3523 31.2131 32.187 32.3067C32.5419 32.7672 32.8778 33.2661 33.1944 33.8129C34.2593 35.6357 34.7868 37.4201 34.7868 39.1565C34.7868 40.6147 34.4127 41.6796 33.6548 42.3319ZM67.2417 86.4428C66.8484 87.2583 66.3206 87.8531 65.6587 88.2368L61.5623 90.5776L55.4897 94.0313C54.7606 94.4438 53.9162 94.3765 52.9473 93.8105C51.9784 93.2541 51.1341 92.3524 50.405 91.0957L40.2359 73.5588C39.5644 72.4075 39.0367 71.1987 38.6434 69.9324C38.2501 68.6565 38.0582 67.4381 38.0582 66.2581C38.0582 63.8981 38.7777 62.296 40.2359 61.4709C41.5118 60.7418 43.0276 60.7898 44.7736 61.6244C45.0135 61.7396 45.2533 61.8643 45.5027 62.0082C46.5868 62.6413 47.6518 63.6007 48.6783 64.8862C49.7048 66.1718 51.1341 68.3207 52.9473 71.3139C54.5206 70.4121 55.8637 69.9036 56.9862 69.7885C58.1086 69.6734 59.2406 69.9419 60.3918 70.6039C62.4449 71.7934 64.2005 73.6451 65.6587 76.149C67.1073 78.6529 67.8365 81.0896 67.8365 83.4496C67.8365 84.6296 67.6446 85.6274 67.2417 86.4428Z" fill="url(#paint0_linear_306_1137)" stroke="white" stroke-width="0.95935" stroke-linecap="round" stroke-linejoin="round"/>
<path d="M67.9031 84.4898C67.9031 85.6698 67.7112 86.6675 67.3083 87.483C66.9149 88.2984 66.3873 88.8932 65.7253 89.277L61.6288 91.6178L55.5562 95.0714C54.8271 95.4839 53.9829 95.4168 53.014 94.8508C52.045 94.2944 51.2007 93.3926 50.4716 92.1358L40.3026 74.5989C39.631 73.4477 39.1033 72.2389 38.71 70.9726C38.3166 69.6966 38.1248 68.4783 38.1248 67.2983C38.1248 64.9383 38.8444 63.3362 40.3026 62.5111C41.5785 61.782 43.0942 61.83 44.8402 62.6646C45.08 62.7797 45.3199 62.9044 45.5693 63.0483C46.6534 63.6815 47.7183 64.6409 48.7449 65.9264C49.7714 67.2119 51.2008 69.3609 53.014 72.354C54.5873 71.4522 55.9303 70.9438 57.0527 70.8287C58.1752 70.7135 59.3073 70.9822 60.4585 71.6441C62.5115 72.8337 64.2671 74.6853 65.7253 77.1892C67.174 79.6931 67.9031 82.1298 67.9031 84.4898Z" fill="url(#paint1_linear_306_1137)" stroke="white" stroke-width="0.95935" stroke-linecap="round" stroke-linejoin="round"/>
<path d="M34.854 40.197C34.854 41.6552 34.48 42.7201 33.7221 43.3724C33.5878 43.5067 33.4343 43.6122 33.2616 43.7081C32.2063 44.3125 30.9208 44.1783 29.405 43.3053C27.8892 42.4323 26.6036 41.0796 25.5483 39.2472C24.493 37.4245 23.9558 35.6401 23.9558 33.9036C23.9558 32.1672 24.493 30.9967 25.5483 30.3923C26.6036 29.7879 27.8892 29.9223 29.405 30.7953C30.4699 31.4093 31.4196 32.2535 32.2542 33.3471C32.6091 33.8076 32.945 34.3066 33.2616 34.8534C34.3265 36.6762 34.854 38.4606 34.854 40.197Z" fill="url(#paint2_linear_306_1137)" stroke="white" stroke-width="0.95935" stroke-linecap="round" stroke-linejoin="round"/>
<path d="M104.8 86.3705C104.8 87.4066 104.627 88.3372 104.291 89.1526C103.965 89.9681 103.438 90.5821 102.708 90.9946L76.7388 105.807L57.5518 115.4L73.736 106.171L83.5214 100.588C84.2505 100.175 84.7781 99.5615 85.1042 98.746C85.44 97.9306 85.6128 97 85.6128 95.9639C85.6128 94.9279 85.44 93.7863 85.1042 92.5487C84.7781 91.3112 84.2505 90.0736 83.5214 88.8169L79.8951 82.5427L62.5212 52.5343L51.978 34.3258L51.5559 33.5871C50.8939 32.4359 50.1072 31.3806 49.1959 30.4021C48.2941 29.4235 47.3539 28.6561 46.385 28.0996L43.3918 26.3728L32.2538 19.9452L20.3289 13.057C18.535 12.0209 16.9714 11.7811 15.6475 12.3183L34.3835 2.94547C35.8033 2.13962 37.5205 2.31234 39.5159 3.46356L65.572 18.5061C66.5409 19.0626 67.4811 19.83 68.3829 20.8086C69.2942 21.7871 70.0809 22.8424 70.7429 23.9936L102.708 79.2234C103.438 80.4801 103.965 81.7177 104.291 82.9552C104.627 84.1928 104.8 85.3248 104.8 86.3705Z" fill="url(#paint3_linear_306_1137)" stroke="white" stroke-width="0.95935" stroke-linecap="round" stroke-linejoin="round"/>
<defs>
<linearGradient id="paint0_linear_306_1137" x1="13" y1="62.9239" x2="85.546" y2="62.9239" gradientUnits="userSpaceOnUse">
<stop stop-color="#F59E0B"/>
<stop offset="1" stop-color="#E61D2A"/>
</linearGradient>
<linearGradient id="paint1_linear_306_1137" x1="38.1248" y1="78.6675" x2="67.9031" y2="78.6675" gradientUnits="userSpaceOnUse">
<stop stop-color="#F59E0B"/>
<stop offset="1" stop-color="#E61D2A"/>
</linearGradient>
<linearGradient id="paint2_linear_306_1137" x1="23.9558" y1="37.0502" x2="34.854" y2="37.0502" gradientUnits="userSpaceOnUse">
<stop stop-color="#F59E0B"/>
<stop offset="1" stop-color="#E61D2A"/>
</linearGradient>
<linearGradient id="paint3_linear_306_1137" x1="15.6475" y1="58.9241" x2="104.8" y2="58.9241" gradientUnits="userSpaceOnUse">
<stop stop-color="#F59E0B"/>
<stop offset="1" stop-color="#E61D2A"/>
</linearGradient>
</defs>
</svg>
