<svg width="21" height="21" viewBox="0 0 21 21" fill="none" xmlns="http://www.w3.org/2000/svg">
<path d="M5.24985 6.29229C5.24985 5.17838 5.69235 4.11009 6.48001 3.32244C7.26766 2.53478 8.33594 2.09229 9.44985 2.09229C10.5638 2.09229 11.6321 2.53478 12.4197 3.32244C13.2074 4.11009 13.6499 5.17838 13.6499 6.29229C13.6499 7.40619 13.2074 8.47448 12.4197 9.26213C11.6321 10.0498 10.5638 10.4923 9.44985 10.4923C8.33594 10.4923 7.26766 10.0498 6.48001 9.26213C5.69235 8.47448 5.24985 7.40619 5.24985 6.29229ZM2.09985 13.6423C2.09985 12.4736 3.048 11.5423 4.2093 11.5423H10.7697C9.9146 12.5759 9.44772 13.8758 9.44985 15.2173C9.44985 16.5854 9.9255 17.8423 10.7204 18.8324C10.3056 18.8723 9.88035 18.8923 9.44985 18.8923C7.5021 18.8923 5.6877 18.487 4.3416 17.6291C2.9745 16.7576 2.09985 15.4168 2.09985 13.6423ZM19.9499 15.2173C19.9499 16.4704 19.452 17.6723 18.5659 18.5584C17.6798 19.4445 16.478 19.9423 15.2249 19.9423C13.9717 19.9423 12.7699 19.4445 11.8838 18.5584C10.9977 17.6723 10.4999 16.4704 10.4999 15.2173C10.4999 13.9641 10.9977 12.7623 11.8838 11.8762C12.7699 10.9901 13.9717 10.4923 15.2249 10.4923C16.478 10.4923 17.6798 10.9901 18.5659 11.8762C19.452 12.7623 19.9499 13.9641 19.9499 15.2173ZM17.6966 13.2706C17.6478 13.2217 17.5899 13.1829 17.5261 13.1564C17.4623 13.13 17.3939 13.1163 17.3249 13.1163C17.2558 13.1163 17.1874 13.13 17.1236 13.1564C17.0599 13.1829 17.0019 13.2217 16.9532 13.2706L14.1749 16.0499L13.4966 15.3706C13.398 15.272 13.2643 15.2166 13.1249 15.2166C12.9854 15.2166 12.8517 15.272 12.7532 15.3706C12.6546 15.4692 12.5992 15.6029 12.5992 15.7423C12.5992 15.8817 12.6546 16.0154 12.7532 16.114L13.8032 17.164C13.8519 17.2129 13.9099 17.2517 13.9736 17.2781C14.0374 17.3046 14.1058 17.3182 14.1749 17.3182C14.2439 17.3182 14.3123 17.3046 14.3761 17.2781C14.4399 17.2517 14.4978 17.2129 14.5466 17.164L17.6966 14.014C17.7454 13.9652 17.7842 13.9073 17.8107 13.8435C17.8372 13.7797 17.8508 13.7113 17.8508 13.6423C17.8508 13.5732 17.8372 13.5049 17.8107 13.4411C17.7842 13.3773 17.7454 13.3194 17.6966 13.2706Z" fill="url(#paint0_linear_714_141)"/>
<defs>
<linearGradient id="paint0_linear_714_141" x1="2.09985" y1="11.0173" x2="19.9499" y2="11.0173" gradientUnits="userSpaceOnUse">
<stop stop-color="#F59E0B"/>
<stop offset="1" stop-color="#E61D2A"/>
</linearGradient>
</defs>
</svg>
