<svg width="9" height="9" viewBox="0 0 9 9" fill="none" xmlns="http://www.w3.org/2000/svg">
<path d="M1.10819 2.05543C1.1177 2.02117 1.13386 1.98913 1.15575 1.96112C1.17765 1.93312 1.20485 1.90971 1.2358 1.89222C1.26675 1.87474 1.30084 1.86352 1.33612 1.85922C1.37141 1.85493 1.4072 1.85762 1.44144 1.86716L2.05564 2.03739C2.21837 2.0817 2.36686 2.16736 2.48669 2.28604C2.60651 2.40473 2.69358 2.5524 2.73944 2.7147L3.51521 5.52277L3.57219 5.72005C3.8022 5.80482 3.99603 5.96618 4.12111 6.177L4.23292 6.14238L7.43193 5.31106C7.46632 5.30211 7.50213 5.30002 7.53732 5.30491C7.57251 5.3098 7.6064 5.32157 7.63704 5.33956C7.66769 5.35754 7.69449 5.38138 7.71592 5.40972C7.73734 5.43807 7.75298 5.47035 7.76193 5.50474C7.77088 5.53912 7.77297 5.57493 7.76809 5.61013C7.7632 5.64532 7.75143 5.6792 7.73344 5.70985C7.71546 5.74049 7.69161 5.76729 7.66327 5.78872C7.63493 5.81015 7.60264 5.82579 7.56826 5.83474L4.38115 6.6628L4.26213 6.69959C4.25996 7.15762 3.94367 7.5767 3.46508 7.70077C2.89164 7.85008 2.30196 7.51972 2.14833 6.96359C1.99469 6.40746 2.33514 5.8351 2.90859 5.68615C2.9372 5.67893 2.96569 5.67268 2.99406 5.66739L2.21793 2.85861C2.19694 2.78649 2.1577 2.72102 2.10399 2.66851C2.05029 2.61601 1.98394 2.57825 1.91137 2.5589L1.29682 2.38831C1.26257 2.37884 1.23052 2.36272 1.20251 2.34087C1.17449 2.31902 1.15106 2.29186 1.13354 2.26094C1.11603 2.23003 1.10477 2.19597 1.10042 2.16071C1.09607 2.12544 1.09871 2.08967 1.10819 2.05543Z" fill="#F59E0B"/>
<path opacity="0.5" d="M3.73619 3.31258L3.92192 3.98448C4.09684 4.61743 4.18412 4.93409 4.44127 5.07799C4.69842 5.22225 5.02481 5.13714 5.6776 4.96763L6.37005 4.7873C7.02284 4.6178 7.34923 4.53304 7.49782 4.28383C7.64641 4.03425 7.55914 3.7176 7.38386 3.08465L7.19848 2.41311C7.02356 1.7798 6.93592 1.46314 6.67914 1.31924C6.42163 1.17498 6.09523 1.26009 5.44245 1.42996L4.74999 1.60957C4.0972 1.77907 3.77081 1.86419 3.62258 2.11376C3.47399 2.36298 3.56127 2.67963 3.73619 3.31258Z" fill="#F59E0B"/>
</svg>
