<svg width="12" height="12" viewBox="0 0 12 12" fill="none" xmlns="http://www.w3.org/2000/svg">
<path d="M6.06165 7.66679L10.0859 3.64799C10.1249 3.60872 10.1715 3.57769 10.2227 3.55674C10.274 3.53578 10.329 3.52533 10.3844 3.526C10.4398 3.52667 10.4945 3.53845 10.5452 3.56064C10.596 3.58284 10.6417 3.61499 10.6799 3.65519C10.7579 3.73743 10.8008 3.84687 10.7995 3.96026C10.7982 4.07364 10.7526 4.18203 10.6727 4.26239L6.35085 8.57819C6.31208 8.61724 6.2659 8.64816 6.21503 8.66915C6.16417 8.69014 6.10963 8.70077 6.0546 8.70044C5.99957 8.7001 5.94516 8.6888 5.89455 8.66719C5.84395 8.64559 5.79815 8.61411 5.75985 8.57459L1.32285 4.03199C1.24433 3.95067 1.20044 3.84204 1.20044 3.72899C1.20044 3.61595 1.24433 3.50732 1.32285 3.42599C1.36144 3.38626 1.40761 3.35467 1.45863 3.3331C1.50964 3.31153 1.56447 3.30042 1.61985 3.30042C1.67524 3.30042 1.73007 3.31153 1.78108 3.3331C1.8321 3.35467 1.87827 3.38626 1.91685 3.42599L6.06165 7.66679Z" fill="black"/>
</svg>
