<svg width="24" height="24" viewBox="0 0 24 24" fill="none" xmlns="http://www.w3.org/2000/svg">
<path d="M7.375 21.025C6.775 21.0083 6.204 20.8543 5.662 20.563C5.12 20.2717 4.60767 19.8423 4.125 19.275C3.45833 18.475 2.93767 17.521 2.563 16.413C2.18833 15.305 2.00067 14.1673 2 13C2 11.6167 2.26267 10.3167 2.788 9.1C3.31333 7.88334 4.02567 6.825 4.925 5.925C5.82433 5.025 6.88267 4.31267 8.1 3.788C9.31733 3.26333 10.6173 3.00067 12 3C13.3827 2.99933 14.6827 3.266 15.9 3.8C17.1173 4.334 18.1757 5.059 19.075 5.975C19.9743 6.891 20.687 7.966 21.213 9.2C21.739 10.434 22.0013 11.759 22 13.175C22 14.4583 21.7917 15.6583 21.375 16.775C20.9583 17.8917 20.3667 18.8333 19.6 19.6C19.1333 20.0667 18.6417 20.421 18.125 20.663C17.6083 20.905 17.0833 21.0257 16.55 21.025C16.25 21.025 15.95 20.9877 15.65 20.913C15.35 20.8383 15.05 20.7257 14.75 20.575L13.35 19.875C13.15 19.775 12.9373 19.7 12.712 19.65C12.4867 19.6 12.2493 19.575 12 19.575C11.7507 19.575 11.5133 19.6 11.288 19.65C11.0627 19.7 10.85 19.775 10.65 19.875L9.25 20.575C8.93333 20.7417 8.621 20.8627 8.313 20.938C8.005 21.0133 7.69233 21.0423 7.375 21.025ZM7.425 19.025C7.575 19.025 7.72933 19.0083 7.888 18.975C8.04667 18.9417 8.20067 18.8833 8.35 18.8L9.75 18.1C10.1 17.9167 10.4627 17.7833 10.838 17.7C11.2133 17.6167 11.5923 17.575 11.975 17.575C12.3577 17.575 12.741 17.6167 13.125 17.7C13.509 17.7833 13.8757 17.9167 14.225 18.1L15.65 18.8C15.8 18.8833 15.95 18.9417 16.1 18.975C16.25 19.0083 16.4 19.025 16.55 19.025C16.8667 19.025 17.1667 18.9417 17.45 18.775C17.7333 18.6083 18.0167 18.3583 18.3 18.025C18.8333 17.3917 19.25 16.6333 19.55 15.75C19.85 14.8667 20 13.9583 20 13.025C20 10.7917 19.225 8.896 17.675 7.338C16.125 5.78 14.2333 5.00067 12 5C9.76667 4.99933 7.875 5.78267 6.325 7.35C4.775 8.91733 4 10.8173 4 13.05C4 14 4.154 14.925 4.462 15.825C4.77 16.725 5.19933 17.4833 5.75 18.1C6.03333 18.4333 6.30833 18.671 6.575 18.813C6.84167 18.955 7.125 19.0257 7.425 19.025ZM12 15C12.55 15 13.021 14.804 13.413 14.412C13.805 14.02 14.0007 13.5493 14 13C14 12.8667 13.9873 12.7333 13.962 12.6C13.9367 12.4667 13.8993 12.3333 13.85 12.2L15.1 10.525C15.2667 10.7417 15.4127 10.9707 15.538 11.212C15.6633 11.4533 15.7673 11.716 15.85 12H17.9C17.65 10.5333 16.971 9.33333 15.863 8.4C14.755 7.46667 13.4673 7 12 7C10.5327 7 9.241 7.471 8.125 8.413C7.009 9.355 6.334 10.5507 6.1 12H8.15C8.38333 11.1 8.85833 10.375 9.575 9.825C10.2917 9.275 11.1 9 12 9C12.2833 9 12.55 9.025 12.8 9.075C13.05 9.125 13.2917 9.2 13.525 9.3L12.25 11.025C12.2167 11.025 12.175 11.0207 12.125 11.012C12.075 11.0033 12.0333 10.9993 12 11C11.45 11 10.9793 11.196 10.588 11.588C10.1967 11.98 10.0007 12.4507 10 13C9.99933 13.5493 10.1953 14.0203 10.588 14.413C10.9807 14.8057 11.4513 15.0013 12 15Z" fill="#449E17"/>
</svg>
