<svg width="18" height="19" viewBox="0 0 18 19" fill="none" xmlns="http://www.w3.org/2000/svg">
<path d="M16.5 1.40578H11.25C10.8206 1.40402 10.4043 1.55331 10.0738 1.82752C9.74341 2.10174 9.51993 2.48342 9.4425 2.90578L8.7525 6.69328C8.70481 6.95716 8.7157 7.22829 8.78439 7.4875C8.85308 7.7467 8.97789 7.98764 9.15 8.19328C9.32306 8.39901 9.53882 8.56461 9.7823 8.67858C10.0258 8.79256 10.2912 8.85217 10.56 8.85328H12.75L12.5625 9.34828C12.4241 9.71531 12.376 10.1103 12.4223 10.4998C12.4686 10.8893 12.608 11.262 12.8286 11.5863C13.0493 11.9106 13.3447 12.1771 13.69 12.3633C14.0353 12.5494 14.4203 12.6497 14.8125 12.6558C14.958 12.6569 15.1008 12.6157 15.2233 12.5371C15.3458 12.4586 15.4428 12.346 15.5025 12.2133L17.1825 8.41828C17.2208 8.3356 17.2436 8.24665 17.25 8.15578V2.15578C17.25 1.95686 17.171 1.7661 17.0303 1.62545C16.8897 1.48479 16.6989 1.40578 16.5 1.40578ZM15.75 7.95328L14.3775 11.0508C14.2431 10.9786 14.1275 10.8758 14.04 10.7508C13.9517 10.6258 13.8959 10.4809 13.8776 10.329C13.8593 10.1772 13.879 10.0231 13.935 9.88078L14.22 9.13078C14.295 8.93626 14.3205 8.72619 14.2943 8.51937C14.2682 8.31256 14.1911 8.11547 14.07 7.94578C13.9508 7.77673 13.7922 7.63924 13.6079 7.54516C13.4237 7.45108 13.2194 7.40324 13.0125 7.40578H10.545C10.4952 7.40592 10.4459 7.39526 10.4006 7.37455C10.3553 7.35383 10.315 7.32355 10.2825 7.28578C10.2243 7.2058 10.2 7.10606 10.215 7.00828L10.905 3.25828C10.9018 3.21179 10.9084 3.16515 10.9245 3.12143C10.9406 3.0777 10.9658 3.03788 10.9984 3.00458C11.031 2.97128 11.0702 2.94526 11.1136 2.92823C11.157 2.9112 11.2035 2.90355 11.25 2.90578H15.75V7.95328ZM7.455 10.4433H5.2875L5.475 9.94828C5.61142 9.5791 5.65671 9.18245 5.60701 8.79203C5.55731 8.4016 5.4141 8.02895 5.18954 7.70572C4.96497 7.3825 4.6657 7.11827 4.31715 6.93547C3.9686 6.75268 3.58107 6.65673 3.1875 6.65578C3.04195 6.65463 2.89922 6.69585 2.7767 6.77442C2.65418 6.853 2.55717 6.96552 2.4975 7.09828L0.8175 10.8933C0.774521 10.9875 0.751538 11.0897 0.75 11.1933V17.1933C0.75 17.3922 0.829018 17.583 0.96967 17.7236C1.11032 17.8643 1.30109 17.9433 1.5 17.9433H6.75C7.17939 17.945 7.59573 17.7957 7.92616 17.5215C8.25659 17.2473 8.48007 16.8656 8.5575 16.4433L9.2475 12.6933C9.29519 12.4294 9.2843 12.1583 9.21561 11.8991C9.14692 11.6399 9.02211 11.3989 8.85 11.1933C8.68737 10.9729 8.47791 10.7914 8.23669 10.6617C7.99548 10.532 7.7285 10.4574 7.455 10.4433ZM7.095 16.1283C7.08212 16.2091 7.03969 16.2822 6.97594 16.3335C6.9122 16.3847 6.83167 16.4105 6.75 16.4058H2.25V11.3583L3.6225 8.26078C3.75693 8.33299 3.87253 8.43574 3.96 8.56078C4.04826 8.68572 4.10407 8.83064 4.1224 8.98251C4.14073 9.13438 4.121 9.28843 4.065 9.43078L3.78 10.1808C3.70502 10.3753 3.67948 10.5854 3.70566 10.7922C3.73184 10.999 3.80892 11.1961 3.93 11.3658C4.04756 11.5376 4.20541 11.678 4.38975 11.7748C4.57409 11.8715 4.77932 11.9216 4.9875 11.9208H7.455C7.50482 11.9206 7.55409 11.9313 7.5994 11.952C7.64472 11.9727 7.68501 12.003 7.7175 12.0408C7.77572 12.1208 7.79998 12.2205 7.785 12.3183L7.095 16.1283Z" fill="white"/>
</svg>
