<svg width="14" height="14" viewBox="0 0 14 14" fill="none" xmlns="http://www.w3.org/2000/svg">
<g opacity="0.52">
<path d="M6.41675 9.9165H7.58342V6.4165H6.41675V9.9165ZM7.00008 5.24984C7.16536 5.24984 7.304 5.19384 7.416 5.08184C7.528 4.96984 7.5838 4.83139 7.58342 4.6665C7.58303 4.50161 7.52703 4.36317 7.41541 4.25117C7.3038 4.13917 7.16536 4.08317 7.00008 4.08317C6.8348 4.08317 6.69636 4.13917 6.58475 4.25117C6.47314 4.36317 6.41714 4.50161 6.41675 4.6665C6.41636 4.83139 6.47236 4.97003 6.58475 5.08242C6.69714 5.19481 6.83558 5.25061 7.00008 5.24984ZM7.00008 12.8332C6.19314 12.8332 5.4348 12.6799 4.72508 12.3735C4.01536 12.0671 3.398 11.6515 2.873 11.1269C2.348 10.6023 1.93247 9.98495 1.62642 9.27484C1.32036 8.56473 1.16714 7.80639 1.16675 6.99984C1.16636 6.19328 1.31958 5.43495 1.62642 4.72484C1.93325 4.01473 2.34878 3.39737 2.873 2.87275C3.39722 2.34814 4.01458 1.93262 4.72508 1.62617C5.43558 1.31973 6.19391 1.1665 7.00008 1.1665C7.80625 1.1665 8.56458 1.31973 9.27508 1.62617C9.98558 1.93262 10.6029 2.34814 11.1272 2.87275C11.6514 3.39737 12.0671 4.01473 12.3743 4.72484C12.6816 5.43495 12.8346 6.19328 12.8334 6.99984C12.8322 7.80639 12.679 8.56473 12.3737 9.27484C12.0685 9.98495 11.6529 10.6023 11.1272 11.1269C10.6014 11.6515 9.98403 12.0673 9.27508 12.3741C8.56614 12.6809 7.8078 12.8339 7.00008 12.8332ZM7.00008 11.6665C8.30286 11.6665 9.40633 11.2144 10.3105 10.3103C11.2147 9.40609 11.6667 8.30261 11.6667 6.99984C11.6667 5.69706 11.2147 4.59359 10.3105 3.68942C9.40633 2.78525 8.30286 2.33317 7.00008 2.33317C5.6973 2.33317 4.59383 2.78525 3.68967 3.68942C2.7855 4.59359 2.33342 5.69706 2.33342 6.99984C2.33342 8.30261 2.7855 9.40609 3.68967 10.3103C4.59383 11.2144 5.6973 11.6665 7.00008 11.6665Z" fill="url(#paint0_linear_574_250)"/>
</g>
<defs>
<linearGradient id="paint0_linear_574_250" x1="1.16675" y1="6.99984" x2="12.8334" y2="6.99984" gradientUnits="userSpaceOnUse">
<stop stop-color="#F59E0B"/>
<stop offset="1" stop-color="#E61D2A"/>
</linearGradient>
</defs>
</svg>
