<svg width="230" height="230" viewBox="0 0 230 230" fill="none" xmlns="http://www.w3.org/2000/svg">
<path d="M76.6832 93.1437C75.9548 93.0245 75.4352 93.0649 74.9198 93.0586C74.528 93.0522 74.1361 93.0777 73.7443 93.0628C72.9372 93.033 72.5794 92.7008 72.441 91.8894C72.3409 91.2995 72.4047 90.7138 72.5347 90.1388C72.6369 89.681 72.9606 89.4105 73.4291 89.3594C73.7209 89.3274 74.0169 89.3338 74.3086 89.336C76.204 89.336 78.0994 89.3338 79.9926 89.3487C80.4441 89.353 80.8402 89.2678 81.1171 88.8866C81.6772 88.1135 82.4736 87.7877 83.3851 87.6961C83.8068 87.6535 84.2327 87.6365 84.6565 87.6344C86.4859 87.6301 88.3152 87.6365 90.1467 87.6386C90.3426 87.6386 90.5407 87.645 90.7345 87.628C91.1455 87.5918 91.2818 87.3298 91.0923 86.938C91.0071 86.7612 90.9006 86.5973 90.8026 86.4269C89.3673 83.9373 87.9148 81.4585 86.5093 78.9519C86.143 78.3002 85.6702 77.9297 84.9568 77.7486C84.1049 77.5336 83.2765 77.2269 82.4353 76.9671C82.1563 76.8798 81.871 76.8095 81.5877 76.7349C80.8658 76.5411 80.229 76.7435 79.6647 77.1907C79.4112 77.393 79.1812 77.6315 78.9704 77.8786C78.0206 78.9838 76.8067 79.5333 75.3671 79.5929C72.7625 79.7015 70.684 78.7283 69.3935 76.4283C67.4661 72.9953 69.0548 68.7637 73.082 67.4306C76.0784 66.4382 80.0501 68.3783 80.7614 71.956C80.8381 72.3394 80.8764 72.7312 80.9318 73.1188C81.0383 73.8706 81.2619 74.1304 82.0115 74.305C82.5503 74.4307 83.0997 74.5116 83.6407 74.6287C85.9875 75.1398 87.8041 76.4325 89.1798 78.379C89.7655 79.2096 90.234 80.1061 90.628 81.041C91.2136 82.4317 92.0272 83.6946 92.8492 84.9532C92.8833 85.0043 92.9472 85.0384 93.0366 85.115C97.4428 80.5363 102.78 78.017 109.196 77.9744C115.577 77.9318 120.937 80.3361 125.445 84.8957C125.59 84.7019 125.712 84.5613 125.812 84.4059C126.6 83.2026 127.339 81.9781 127.873 80.63C128.297 79.5652 128.917 78.5984 129.658 77.7167C131.146 75.9448 133.054 74.9013 135.314 74.4733C135.668 74.4073 136.019 74.3327 136.377 74.2965C136.96 74.2369 137.231 73.8727 137.348 73.351C137.39 73.1614 137.399 72.9634 137.416 72.7674C137.74 69.0768 140.898 67.3028 143.353 67.1772C145.992 67.043 148.807 69.0768 149.544 71.9454C150.322 74.9673 148.626 78.7283 144.633 79.4864C142.401 79.9102 140.432 79.2436 138.892 77.5016C138.804 77.4036 138.717 77.3057 138.645 77.1971C138.212 76.5518 137.599 76.4538 136.918 76.654C135.949 76.9373 134.986 77.2461 134.028 77.5612C132.997 77.8998 132.198 78.5579 131.596 79.4502C131.249 79.9635 130.921 80.4916 130.608 81.0283C129.558 82.8363 128.52 84.6486 127.479 86.461C127.398 86.6015 127.324 86.7463 127.228 86.9252C127.364 87.1403 127.5 87.3533 127.656 87.5961C127.954 87.611 128.242 87.6386 128.531 87.6386C130.197 87.6408 131.864 87.6237 133.529 87.6365C134.081 87.6408 134.635 87.7025 135.186 87.76C136.002 87.8452 136.688 88.2073 137.199 88.8483C137.514 89.2444 137.876 89.3679 138.385 89.3573C140.376 89.3189 142.369 89.3338 144.363 89.3296C144.461 89.3296 144.559 89.3296 144.657 89.3381C145.419 89.3935 145.781 89.7236 145.841 90.4945C145.879 90.98 145.879 91.4762 145.837 91.9618C145.775 92.6603 145.391 93.016 144.693 93.0607C144.237 93.0884 143.779 93.0692 143.321 93.0735C142.84 93.0777 142.372 93.1437 141.878 93.395C142.276 93.8082 142.742 94.0424 143.16 94.3406C143.398 94.511 143.66 94.6558 143.875 94.8517C144.278 95.218 144.29 95.7653 143.935 96.1657C143.622 96.5171 142.964 96.5533 142.606 96.2189C142.44 96.0635 142.306 95.8761 142.169 95.6929C141.79 95.1839 141.307 94.7963 140.749 94.5131C139.871 94.0659 138.93 93.8039 137.965 93.6186C137.62 93.5526 137.331 93.6144 137.052 93.8337C136.081 94.5983 134.937 94.8176 133.738 94.8091C133.248 94.8049 132.761 94.7452 132.271 94.7261C131.951 94.7133 131.63 94.7239 131.244 94.7239C131.28 94.9859 131.289 95.2052 131.342 95.4139C131.907 97.6181 132.056 99.8563 131.947 102.12C131.815 104.82 131.193 107.412 130.25 109.936C129.249 112.611 127.939 115.132 126.282 117.451C124.308 120.216 122.298 122.956 120.215 125.638C116.846 129.969 113.404 134.246 109.991 138.543C109.812 138.769 109.612 138.975 109.392 139.223C109.026 139.027 108.843 138.709 108.628 138.439C106.117 135.302 103.602 132.167 101.112 129.015C98.3585 125.529 95.6326 122.019 93.0558 118.399C91.0965 115.645 89.4546 112.721 88.3003 109.535C87.3484 106.905 86.7989 104.194 86.7052 101.4C86.6392 99.4325 86.8649 97.4882 87.3207 95.5715C87.359 95.4139 87.3952 95.2542 87.4208 95.0945C87.4293 95.0349 87.4037 94.971 87.391 94.9049C87.2632 94.709 87.0523 94.7473 86.8649 94.7431C86.0812 94.7282 85.2975 94.7261 84.5138 94.7154C84.188 94.7111 83.86 94.7026 83.5342 94.6941C82.7931 94.6749 82.1116 94.4726 81.5558 93.9679C81.1533 93.6016 80.7018 93.5228 80.1928 93.6378C79.2685 93.8465 78.3635 94.1149 77.5137 94.5472C76.8599 94.8794 76.3275 95.3522 75.9378 95.9783C75.7057 96.351 75.3756 96.5 74.9411 96.4511C74.5812 96.4106 74.3427 96.2253 74.1979 95.8974C74.0531 95.563 74.0914 95.2478 74.3235 94.9816C74.4705 94.8134 74.6622 94.6792 74.8474 94.5493C75.3032 94.232 75.7696 93.9317 76.2253 93.6144C76.3467 93.5186 76.4404 93.3908 76.6832 93.1437ZM109.382 128.104C109.68 127.75 109.916 127.486 110.135 127.205C113.064 123.482 116.005 119.771 118.907 116.029C119.887 114.766 120.811 113.454 121.674 112.108C123.582 109.124 124.843 105.907 125.098 102.327C125.213 100.708 125.062 99.1323 124.689 97.5712C123.903 94.2916 122.174 91.5508 119.68 89.3253C115.824 85.8796 111.307 84.6614 106.225 85.6496C102.763 86.3247 99.9196 88.0901 97.6217 90.7394C94.2739 94.5961 92.9727 99.0577 93.7969 104.105C94.0929 105.917 94.6892 107.642 95.4729 109.308C96.3098 111.09 97.3619 112.738 98.5225 114.321C101.885 118.906 105.452 123.329 109.015 127.759C109.092 127.857 109.198 127.933 109.382 128.104Z" fill="black"/>
<path d="M109.382 128.104C109.196 127.934 109.09 127.857 109.013 127.761C105.453 123.331 101.883 118.908 98.5206 114.323C97.36 112.741 96.3079 111.09 95.471 109.31C94.6894 107.647 94.091 105.92 93.795 104.107C92.9708 99.06 94.272 94.5985 97.6198 90.7417C99.9198 88.0924 102.761 86.327 106.223 85.6519C111.305 84.6616 115.82 85.8819 119.678 89.3276C122.17 91.5531 123.902 94.2939 124.687 97.5735C125.06 99.1324 125.213 100.71 125.096 102.329C124.841 105.909 123.58 109.127 121.672 112.11C120.811 113.456 119.885 114.768 118.905 116.031C116.005 119.775 113.062 123.485 110.133 127.207C109.916 127.484 109.68 127.75 109.382 128.104ZM102.047 102.376C101.898 105.555 104.52 109.448 109.12 109.491C113.207 109.529 116.301 106.23 116.297 102.357C116.292 98.8769 113.707 95.3715 109.101 95.2097C104.339 95.429 101.898 99.273 102.047 102.376Z" fill="#F59E0B"/>
<path d="M102.047 102.375C101.898 99.2745 104.339 95.4283 109.101 95.209C113.707 95.3708 116.29 98.8762 116.297 102.356C116.303 106.232 113.206 109.529 109.12 109.49C104.52 109.448 101.896 105.555 102.047 102.375Z" fill="black"/>
<path d="M30.3071 134.784H46.8436V139.117H35.678V145.986H44.2327V150.245H35.678V161.564H30.3049V134.784H30.3071Z" fill="black"/>
<path d="M56.0076 161.564H50.6345V140.308H56.0076V143.607C57.3514 141.42 59.5747 140.001 62.5306 140.001V145.641H61.1102C57.9264 145.641 56.0076 146.867 56.0076 150.973V161.564Z" fill="black"/>
<path d="M75.4144 161.909C69.2385 161.909 64.7493 157.612 64.7493 150.935C64.7493 144.221 69.1235 139.963 75.4144 139.963C81.552 139.963 85.888 144.146 85.888 150.477C85.888 151.167 85.8496 151.857 85.7346 152.547H70.1969C70.4652 155.695 72.614 157.458 75.2994 157.458C77.6016 157.458 78.8666 156.308 79.5587 154.888H85.3513C84.2013 158.802 80.6704 161.909 75.4144 161.909ZM70.2373 148.94H80.3254C80.2487 146.139 78.0254 144.374 75.2611 144.374C72.6928 144.376 70.659 146.024 70.2373 148.94Z" fill="black"/>
<path d="M99.079 161.909C92.9031 161.909 88.4138 157.612 88.4138 150.935C88.4138 144.221 92.7881 139.963 99.079 139.963C105.217 139.963 109.553 144.146 109.553 150.477C109.553 151.167 109.514 151.857 109.399 152.547H93.8614C94.1297 155.695 96.2785 157.458 98.964 157.458C101.264 157.458 102.531 156.308 103.223 154.888H109.016C107.866 158.802 104.335 161.909 99.079 161.909ZM93.8997 148.94H103.99C103.913 146.139 101.69 144.374 98.9257 144.374C96.3552 144.376 94.3235 146.024 93.8997 148.94Z" fill="black"/>
<path d="M121.824 139.963C124.624 139.963 127.308 141.268 128.769 143.261V133.173H134.216V161.563H128.769V158.416C127.504 160.373 125.123 161.908 121.785 161.908C116.376 161.908 112.079 157.496 112.079 150.858C112.079 144.22 116.376 139.963 121.824 139.963ZM123.165 144.682C120.288 144.682 117.565 146.831 117.565 150.858C117.565 154.885 120.286 157.189 123.165 157.189C126.121 157.189 128.805 154.964 128.805 150.934C128.805 146.905 126.121 144.682 123.165 144.682Z" fill="black"/>
<path d="M148.902 161.909C142.762 161.909 138.122 157.612 138.122 150.935C138.122 144.221 142.918 139.963 149.055 139.963C155.195 139.963 159.991 144.223 159.991 150.935C159.989 157.612 155.078 161.909 148.902 161.909ZM148.902 157.226C151.741 157.226 154.464 155.156 154.464 150.935C154.464 146.676 151.815 144.644 148.976 144.644C146.138 144.644 143.567 146.678 143.567 150.935C143.569 155.156 146.025 157.226 148.902 157.226Z" fill="black"/>
<path d="M193.667 149.823C193.667 146.446 191.786 144.682 188.947 144.682C186.07 144.682 184.188 146.446 184.188 149.823V161.564H178.819V149.823C178.819 146.446 176.938 144.682 174.099 144.682C171.182 144.682 169.304 146.446 169.304 149.823V161.564H163.933V140.308H169.306V142.879C170.647 141.113 172.911 140.001 175.558 140.001C178.857 140.001 181.583 141.42 183.04 144.069C184.42 141.65 187.222 140.001 190.329 140.001C195.432 140.001 199.037 143.226 199.037 149.095V161.564H193.669V149.823H193.667Z" fill="black"/>
<path d="M163.713 186V170.876H168.823C170.005 170.876 170.975 171.078 171.733 171.482C172.491 171.881 173.052 172.43 173.417 173.129C173.781 173.828 173.963 174.623 173.963 175.514C173.963 176.405 173.781 177.195 173.417 177.884C173.052 178.574 172.494 179.115 171.74 179.509C170.987 179.898 170.025 180.092 168.853 180.092H164.718V178.438H168.794C169.601 178.438 170.251 178.32 170.743 178.084C171.241 177.847 171.6 177.513 171.822 177.079C172.048 176.641 172.161 176.119 172.161 175.514C172.161 174.908 172.048 174.379 171.822 173.926C171.595 173.473 171.233 173.124 170.736 172.878C170.239 172.626 169.582 172.501 168.764 172.501H165.545V186H163.713ZM170.832 179.206L174.554 186H172.427L168.764 179.206H170.832ZM176.778 186V174.657H178.521V186H176.778ZM177.665 172.767C177.325 172.767 177.032 172.651 176.786 172.42C176.545 172.188 176.424 171.91 176.424 171.585C176.424 171.26 176.545 170.982 176.786 170.751C177.032 170.519 177.325 170.404 177.665 170.404C178.004 170.404 178.295 170.519 178.536 170.751C178.782 170.982 178.905 171.26 178.905 171.585C178.905 171.91 178.782 172.188 178.536 172.42C178.295 172.651 178.004 172.767 177.665 172.767ZM185.996 186.236C185.051 186.236 184.217 185.998 183.493 185.52C182.769 185.038 182.203 184.358 181.794 183.482C181.386 182.601 181.182 181.559 181.182 180.358C181.182 179.167 181.386 178.133 181.794 177.257C182.203 176.38 182.772 175.703 183.5 175.226C184.229 174.748 185.071 174.51 186.026 174.51C186.764 174.51 187.348 174.633 187.776 174.879C188.209 175.12 188.539 175.396 188.766 175.706C188.997 176.011 189.177 176.262 189.305 176.459H189.452V170.876H191.195V186H189.511V184.257H189.305C189.177 184.464 188.994 184.725 188.758 185.04C188.522 185.35 188.185 185.628 187.746 185.874C187.308 186.116 186.725 186.236 185.996 186.236ZM186.233 184.671C186.932 184.671 187.522 184.489 188.005 184.124C188.487 183.755 188.854 183.246 189.105 182.596C189.356 181.941 189.482 181.185 189.482 180.329C189.482 179.482 189.359 178.741 189.113 178.106C188.866 177.466 188.502 176.969 188.02 176.614C187.537 176.255 186.942 176.075 186.233 176.075C185.494 176.075 184.879 176.265 184.386 176.644C183.899 177.018 183.532 177.527 183.286 178.172C183.045 178.812 182.924 179.531 182.924 180.329C182.924 181.136 183.047 181.87 183.294 182.529C183.545 183.184 183.914 183.706 184.401 184.095C184.894 184.479 185.504 184.671 186.233 184.671ZM199.385 186.236C198.292 186.236 197.349 185.995 196.556 185.513C195.769 185.025 195.161 184.346 194.732 183.474C194.309 182.598 194.097 181.579 194.097 180.417C194.097 179.255 194.309 178.231 194.732 177.345C195.161 176.454 195.756 175.76 196.519 175.263C197.287 174.761 198.183 174.51 199.207 174.51C199.798 174.51 200.382 174.608 200.958 174.805C201.534 175.002 202.058 175.322 202.531 175.765C203.003 176.203 203.38 176.784 203.66 177.508C203.941 178.231 204.081 179.122 204.081 180.181V180.919H195.338V179.413H202.309C202.309 178.773 202.181 178.202 201.925 177.7C201.674 177.198 201.315 176.801 200.847 176.511C200.384 176.22 199.838 176.075 199.207 176.075C198.513 176.075 197.913 176.247 197.406 176.592C196.903 176.932 196.517 177.375 196.246 177.921C195.975 178.468 195.84 179.054 195.84 179.679V180.683C195.84 181.54 195.988 182.266 196.283 182.862C196.583 183.452 196.999 183.903 197.531 184.213C198.063 184.518 198.681 184.671 199.385 184.671C199.843 184.671 200.256 184.607 200.625 184.479C200.999 184.346 201.322 184.149 201.593 183.888C201.863 183.622 202.073 183.292 202.22 182.898L203.904 183.371C203.727 183.942 203.429 184.444 203.011 184.878C202.592 185.306 202.075 185.641 201.46 185.882C200.844 186.118 200.153 186.236 199.385 186.236ZM206.732 186V174.657H208.416V176.37H208.534C208.741 175.809 209.115 175.354 209.657 175.004C210.198 174.655 210.809 174.48 211.488 174.48C211.616 174.48 211.776 174.482 211.968 174.487C212.16 174.492 212.305 174.5 212.404 174.51V176.282C212.345 176.267 212.209 176.245 211.998 176.215C211.791 176.181 211.572 176.164 211.34 176.164C210.789 176.164 210.297 176.279 209.863 176.511C209.435 176.737 209.095 177.052 208.844 177.456C208.598 177.855 208.475 178.31 208.475 178.822V186H206.732Z" fill="url(#paint0_linear_1_4973)"/>
<defs>
<linearGradient id="paint0_linear_1_4973" x1="161.882" y1="178.5" x2="212.882" y2="178.5" gradientUnits="userSpaceOnUse">
<stop stop-color="#F59E0B"/>
<stop offset="1" stop-color="#E61D2A"/>
</linearGradient>
</defs>
</svg>
