<svg width="20" height="21" viewBox="0 0 20 21" fill="none" xmlns="http://www.w3.org/2000/svg">
<path fill-rule="evenodd" clip-rule="evenodd" d="M3.3335 3.82536C3.3335 3.38333 3.50909 2.95941 3.82165 2.64685C4.13421 2.33429 4.55814 2.15869 5.00016 2.15869H15.0002C15.4422 2.15869 15.8661 2.33429 16.1787 2.64685C16.4912 2.95941 16.6668 3.38333 16.6668 3.82536V17.1587C16.6668 17.6007 16.4912 18.0246 16.1787 18.3372C15.8661 18.6498 15.4422 18.8254 15.0002 18.8254H5.00016C4.55814 18.8254 4.13421 18.6498 3.82165 18.3372C3.50909 18.0246 3.3335 17.6007 3.3335 17.1587V3.82536ZM15.0002 3.82536H5.00016V17.1587H15.0002V3.82536ZM6.66683 7.99202C6.66683 7.77101 6.75463 7.55905 6.91091 7.40277C7.06719 7.24649 7.27915 7.15869 7.50016 7.15869H12.5002C12.7212 7.15869 12.9331 7.24649 13.0894 7.40277C13.2457 7.55905 13.3335 7.77101 13.3335 7.99202C13.3335 8.21304 13.2457 8.425 13.0894 8.58128C12.9331 8.73756 12.7212 8.82536 12.5002 8.82536H7.50016C7.27915 8.82536 7.06719 8.73756 6.91091 8.58128C6.75463 8.425 6.66683 8.21304 6.66683 7.99202ZM7.50016 11.3254C7.27915 11.3254 7.06719 11.4132 6.91091 11.5694C6.75463 11.7257 6.66683 11.9377 6.66683 12.1587C6.66683 12.3797 6.75463 12.5917 6.91091 12.7479C7.06719 12.9042 7.27915 12.992 7.50016 12.992H10.0002C10.2212 12.992 10.4331 12.9042 10.5894 12.7479C10.7457 12.5917 10.8335 12.3797 10.8335 12.1587C10.8335 11.9377 10.7457 11.7257 10.5894 11.5694C10.4331 11.4132 10.2212 11.3254 10.0002 11.3254H7.50016Z" fill="url(#paint0_linear_717_155)"/>
<defs>
<linearGradient id="paint0_linear_717_155" x1="3.3335" y1="10.492" x2="16.6668" y2="10.492" gradientUnits="userSpaceOnUse">
<stop stop-color="#F59E0B"/>
<stop offset="1" stop-color="#E61D2A"/>
</linearGradient>
</defs>
</svg>
