<svg width="22" height="23" viewBox="0 0 22 23" fill="none" xmlns="http://www.w3.org/2000/svg">
<path d="M16.1828 18.8252C16.7694 18.8252 17.2714 18.6162 17.6888 18.1982C18.1068 17.7808 18.3158 17.273 18.3158 16.6747C18.3158 16.0764 18.1068 15.5683 17.6888 15.1503C17.2708 14.7323 16.7688 14.5236 16.1828 14.5242C15.5845 14.5242 15.0736 14.7329 14.6501 15.1503C14.226 15.5683 14.0139 16.0764 14.0139 16.6747C14.0139 17.273 14.226 17.7808 14.6501 18.1982C15.0742 18.6156 15.5851 18.8246 16.1828 18.8252ZM16.1828 19.7419C15.3272 19.7419 14.6021 19.4446 14.0075 18.8499C13.4129 18.2553 13.1156 17.5302 13.1156 16.6747C13.1156 15.8307 13.4129 15.1087 14.0075 14.5086C14.6021 13.9079 15.3272 13.6075 16.1828 13.6075C17.0261 13.6075 17.7481 13.9079 18.3488 14.5086C18.9496 15.1087 19.2499 15.8307 19.2499 16.6747C19.2499 17.5302 18.9496 18.2553 18.3488 18.8499C17.7487 19.4446 17.0267 19.7419 16.1828 19.7419ZM13.5913 8.0012C13.2894 8.0012 13.0288 7.89181 12.8094 7.67303C12.5906 7.45364 12.4813 7.193 12.4813 6.89111C12.4813 6.58922 12.5906 6.32858 12.8094 6.10919C13.0282 5.88981 13.2888 5.78011 13.5913 5.78011C13.8938 5.78011 14.1545 5.88981 14.3733 6.10919C14.592 6.32858 14.7017 6.58922 14.7023 6.89111C14.7029 7.193 14.5929 7.45364 14.3723 7.67303C14.1517 7.89242 13.8914 8.00181 13.5913 8.0012ZM10.5242 17.5565V14.1685L8.35717 12.3691C8.06567 12.1234 7.91442 11.8066 7.90342 11.4185C7.89242 11.0305 8.03267 10.7005 8.32417 10.4285L10.0163 8.75103C10.2736 8.50597 10.5838 8.37825 10.9468 8.36786C11.3098 8.35747 11.6202 8.48703 11.8781 8.75653L12.7746 9.61728C13.3955 10.2162 13.9898 10.596 14.5575 10.7567C15.1252 10.9174 15.6728 10.9975 16.2002 10.9969V11.9135C15.3892 11.9135 14.6113 11.7537 13.8663 11.4341C13.1214 11.1145 12.4785 10.6675 11.9377 10.093L11.6379 9.79328L9.51858 11.8961L11.4408 13.8V17.5556L10.5242 17.5565ZM5.81709 18.8252C6.41536 18.8252 6.9235 18.6162 7.3415 18.1982C7.75889 17.7808 7.96759 17.273 7.96759 16.6747C7.96759 16.0764 7.7592 15.568 7.34242 15.1494C6.92564 14.7308 6.4175 14.5221 5.818 14.5233C5.2185 14.5245 4.71067 14.7332 4.2945 15.1494C3.87834 15.5655 3.66903 16.074 3.66659 16.6747C3.66414 17.2754 3.87314 17.7832 4.29359 18.1982C4.71403 18.6131 5.22186 18.8221 5.81709 18.8252ZM4.27158 7.61436L6.99317 4.89186L6.42392 4.31711L4.29359 6.44653L3.37692 5.54819L2.80309 6.12753L4.27158 7.61436ZM5.81709 19.7419C4.97375 19.7419 4.25172 19.4446 3.651 18.8499C3.05028 18.2553 2.74992 17.5302 2.74992 16.6747C2.74992 15.8307 3.05028 15.1084 3.651 14.5077C4.25172 13.907 4.97375 13.6069 5.81709 13.6075C6.67264 13.6075 7.39772 13.9076 7.99233 14.5077C8.58695 15.1084 8.88425 15.8307 8.88425 16.6747C8.88425 17.5302 8.58695 18.2553 7.99233 18.8499C7.39772 19.4446 6.67264 19.7419 5.81709 19.7419ZM4.90042 10.0463C3.98742 9.822 3.24797 9.31753 2.68209 8.53286C2.1162 7.74881 1.83325 6.85231 1.83325 5.84336V3.51686L4.90042 2.3252L7.96759 3.51686V5.84428C7.96759 6.85261 7.68464 7.74881 7.11875 8.53286C6.55286 9.31753 5.81342 9.822 4.90042 10.0463Z" fill="url(#paint0_linear_717_148)"/>
<defs>
<linearGradient id="paint0_linear_717_148" x1="1.83325" y1="11.0335" x2="19.2499" y2="11.0335" gradientUnits="userSpaceOnUse">
<stop stop-color="#F59E0B"/>
<stop offset="1" stop-color="#E61D2A"/>
</linearGradient>
</defs>
</svg>
