<svg width="71" height="71" viewBox="0 0 71 71" fill="none" xmlns="http://www.w3.org/2000/svg">
<path d="M35.8777 61.2304C35.2844 61.2304 34.7009 61.1085 34.1272 60.8645C33.5515 60.6206 33.0256 60.2752 32.5494 59.8283L11.5906 38.8695C11.1457 38.3953 10.8012 37.8703 10.5573 37.2946C10.3134 36.7209 10.1914 36.1374 10.1914 35.5442C10.1914 34.9509 10.3095 34.3635 10.5456 33.782C10.7817 33.2005 11.131 32.6784 11.5935 32.2159L32.5524 11.2571C33.0266 10.7712 33.5515 10.416 34.1272 10.1916C34.7009 9.96914 35.2844 9.85791 35.8777 9.85791C36.4709 9.85791 37.0583 9.97305 37.6398 10.2033C38.2214 10.4355 38.7434 10.7868 39.2059 11.2571L60.1647 32.2159C60.635 32.6784 60.9863 33.1956 61.2185 33.7674C61.4488 34.3411 61.5639 34.9334 61.5639 35.5442C61.5639 36.1374 61.4527 36.7209 61.2302 37.2946C61.0058 37.8703 60.6497 38.3962 60.1618 38.8724L39.203 59.8312C38.7424 60.2918 38.2253 60.6401 37.6516 60.8762C37.0778 61.1124 36.4865 61.2304 35.8777 61.2304ZM34.4141 38.9778H37.3413V23.6685H34.4141V38.9778ZM35.8777 45.5055C36.389 45.5055 36.8163 45.3337 37.1598 44.9903C37.5052 44.6449 37.6779 44.2165 37.6779 43.7052C37.6779 43.1959 37.5052 42.7685 37.1598 42.4231C36.8163 42.0777 36.389 41.905 35.8777 41.905C35.3664 41.905 34.939 42.0777 34.5955 42.4231C34.2501 42.7685 34.0774 43.1959 34.0774 43.7052C34.0774 44.2165 34.2501 44.6449 34.5955 44.9903C34.939 45.3357 35.3664 45.5084 35.8777 45.5084" fill="#DF0000"/>
</svg>
