<svg width="15" height="15" viewBox="0 0 15 15" fill="none" xmlns="http://www.w3.org/2000/svg">
<path fill-rule="evenodd" clip-rule="evenodd" d="M7.5 1.25C8.99184 1.25 10.4226 1.84263 11.4775 2.89752C12.5324 3.95242 13.125 5.38316 13.125 6.875C13.125 8.79625 12.0775 10.3688 10.9738 11.4969C10.4223 12.0544 9.82058 12.5599 9.17625 13.0069L8.91 13.1881L8.785 13.2713L8.54938 13.4213L8.33938 13.5494L8.07938 13.7006C7.9029 13.8014 7.7032 13.8543 7.5 13.8543C7.2968 13.8543 7.0971 13.8014 6.92062 13.7006L6.66062 13.5494L6.33563 13.3494L6.21562 13.2713L5.95937 13.1006C5.26427 12.6303 4.61681 12.0932 4.02625 11.4969C2.9225 10.3681 1.875 8.79625 1.875 6.875C1.875 5.38316 2.46763 3.95242 3.52252 2.89752C4.57742 1.84263 6.00816 1.25 7.5 1.25ZM7.5 2.5C6.33968 2.5 5.22688 2.96094 4.40641 3.78141C3.58594 4.60188 3.125 5.71468 3.125 6.875C3.125 8.32625 3.92 9.6 4.91937 10.6225C5.34908 11.0575 5.81354 11.4567 6.30813 11.8163L6.59437 12.02C6.68687 12.0846 6.77583 12.1446 6.86125 12.2L7.105 12.3563L7.31938 12.4869L7.5 12.5925L7.78438 12.4244L8.01375 12.2806C8.13583 12.2031 8.26646 12.1163 8.40563 12.02L8.69187 11.8163C9.18646 11.4567 9.65092 11.0575 10.0806 10.6225C11.08 9.60063 11.875 8.32625 11.875 6.875C11.875 5.71468 11.4141 4.60188 10.5936 3.78141C9.77312 2.96094 8.66032 2.5 7.5 2.5ZM7.5 4.375C8.16304 4.375 8.79893 4.63839 9.26777 5.10723C9.73661 5.57607 10 6.21196 10 6.875C10 7.53804 9.73661 8.17393 9.26777 8.64277C8.79893 9.11161 8.16304 9.375 7.5 9.375C6.83696 9.375 6.20107 9.11161 5.73223 8.64277C5.26339 8.17393 5 7.53804 5 6.875C5 6.21196 5.26339 5.57607 5.73223 5.10723C6.20107 4.63839 6.83696 4.375 7.5 4.375ZM7.5 5.625C7.16848 5.625 6.85054 5.7567 6.61612 5.99112C6.3817 6.22554 6.25 6.54348 6.25 6.875C6.25 7.20652 6.3817 7.52446 6.61612 7.75888C6.85054 7.9933 7.16848 8.125 7.5 8.125C7.83152 8.125 8.14946 7.9933 8.38388 7.75888C8.6183 7.52446 8.75 7.20652 8.75 6.875C8.75 6.54348 8.6183 6.22554 8.38388 5.99112C8.14946 5.7567 7.83152 5.625 7.5 5.625Z" fill="black"/>
</svg>
