<svg width="24" height="25" viewBox="0 0 24 25" fill="none" xmlns="http://www.w3.org/2000/svg">
<path fill-rule="evenodd" clip-rule="evenodd" d="M6 2.4917C5.20435 2.4917 4.44129 2.80777 3.87868 3.37038C3.31607 3.93299 3 4.69605 3 5.4917V19.4917C3 20.2873 3.31607 21.0504 3.87868 21.613C4.44129 22.1756 5.20435 22.4917 6 22.4917H12C12.7956 22.4917 13.5587 22.1756 14.1213 21.613C14.6839 21.0504 15 20.2873 15 19.4917V5.4917C15 4.69605 14.6839 3.93299 14.1213 3.37038C13.5587 2.80777 12.7956 2.4917 12 2.4917H6ZM16.293 7.7847C16.4805 7.59723 16.7348 7.49191 17 7.49191C17.2652 7.49191 17.5195 7.59723 17.707 7.7847L21.707 11.7847C21.8945 11.9722 21.9998 12.2265 21.9998 12.4917C21.9998 12.7569 21.8945 13.0112 21.707 13.1987L17.707 17.1987C17.5184 17.3809 17.2658 17.4817 17.0036 17.4794C16.7414 17.4771 16.4906 17.3719 16.3052 17.1865C16.1198 17.0011 16.0146 16.7503 16.0123 16.4881C16.01 16.2259 16.1108 15.9733 16.293 15.7847L18.586 13.4917H10C9.73478 13.4917 9.48043 13.3863 9.29289 13.1988C9.10536 13.0113 9 12.7569 9 12.4917C9 12.2265 9.10536 11.9721 9.29289 11.7846C9.48043 11.5971 9.73478 11.4917 10 11.4917H18.586L16.293 9.1987C16.1055 9.01117 16.0002 8.75686 16.0002 8.4917C16.0002 8.22653 16.1055 7.97223 16.293 7.7847Z" fill="url(#paint0_linear_367_1090)"/>
<defs>
<linearGradient id="paint0_linear_367_1090" x1="3" y1="12.4917" x2="21.9998" y2="12.4917" gradientUnits="userSpaceOnUse">
<stop stop-color="#F59E0B"/>
<stop offset="1" stop-color="#E61D2A"/>
</linearGradient>
</defs>
</svg>
