<svg width="21" height="21" viewBox="0 0 21 21" fill="none" xmlns="http://www.w3.org/2000/svg">
<rect width="21" height="21" rx="6" fill="#D9D9D9" fill-opacity="0.53"/>
<path d="M16.6369 8.12657C16.3302 7.39448 15.8839 6.72906 15.323 6.1674C14.7638 5.60475 14.0996 5.15742 13.368 4.85079C12.6185 4.53515 11.8132 4.37336 11 4.37501H10.9727C10.1455 4.37911 9.3457 4.54318 8.59238 4.86583C7.86705 5.1756 7.20902 5.62373 6.65508 6.18517C6.09963 6.74557 5.6585 7.40867 5.35625 8.13751C5.0425 8.89543 4.88352 9.70845 4.88867 10.5287C4.89277 11.4776 5.11973 12.4195 5.54355 13.2617V15.3399C5.54355 15.6871 5.82519 15.9688 6.17109 15.9688H8.24648C9.0926 16.3957 10.0263 16.6204 10.974 16.625H11.0027C11.8203 16.625 12.6119 16.4664 13.3584 16.1561C14.0863 15.8531 14.7481 15.411 15.3066 14.8545C15.8699 14.2953 16.3129 13.6418 16.6232 12.9131C16.9445 12.1584 17.1086 11.3559 17.1127 10.5274C17.1154 9.69474 16.9541 8.88673 16.6369 8.12657ZM8.27109 11.1563C7.91016 11.1563 7.61621 10.8623 7.61621 10.5C7.61621 10.1377 7.91016 9.84376 8.27109 9.84376C8.63203 9.84376 8.92598 10.1377 8.92598 10.5C8.92598 10.8623 8.6334 11.1563 8.27109 11.1563ZM11 11.1563C10.6391 11.1563 10.3451 10.8623 10.3451 10.5C10.3451 10.1377 10.6391 9.84376 11 9.84376C11.3609 9.84376 11.6549 10.1377 11.6549 10.5C11.6549 10.8623 11.3609 11.1563 11 11.1563ZM13.7289 11.1563C13.368 11.1563 13.074 10.8623 13.074 10.5C13.074 10.1377 13.368 9.84376 13.7289 9.84376C14.0898 9.84376 14.3838 10.1377 14.3838 10.5C14.3838 10.8623 14.0898 11.1563 13.7289 11.1563Z" fill="#E61D2A"/>
</svg>
