<svg width="164" height="163" viewBox="0 0 164 163" fill="none" xmlns="http://www.w3.org/2000/svg">
<g opacity="0.26">
<path d="M90.1066 45.6294L89.6953 45.835C89.8862 45.8497 90.0627 45.8643 90.2389 45.8643L90.1066 45.6294ZM102.06 85.6011C102.398 85.513 102.691 85.3662 102.956 85.1459L102.06 85.6011Z" fill="url(#paint0_linear_390_1652)" stroke="white" stroke-width="1.46847" stroke-linecap="round" stroke-linejoin="round"/>
<path d="M96.0107 38.3901C96.0107 40.1523 95.7173 41.6061 95.1152 42.7662C94.6159 43.7941 93.8817 44.5724 92.9125 45.1304C92.0902 45.6003 91.1942 45.85 90.2397 45.8646L90.1074 45.6297L89.6963 45.8353H89.6819C88.3896 45.7472 87.0091 45.2626 85.4819 44.3962C82.5743 42.7221 80.1072 40.1082 78.0366 36.5546C75.9808 32.9862 74.9531 29.55 74.9531 26.2312C74.9531 25.1152 75.0706 24.1166 75.3202 23.2502C75.4084 22.8244 75.5552 22.4573 75.702 22.1048C76.2307 20.9447 76.994 20.0783 78.0366 19.4763L78.6827 19.1532C79.74 18.7273 80.8856 18.6392 82.1191 18.8889C82.31 18.9329 82.5157 18.977 82.7066 19.0357C83.5877 19.2707 84.5127 19.6672 85.4819 20.2252C88.3748 21.8992 90.842 24.5131 92.9125 28.0668C94.9683 31.6205 96.0107 35.0714 96.0107 38.3901Z" fill="url(#paint1_linear_390_1652)" stroke="white" stroke-width="1.46847" stroke-linecap="round" stroke-linejoin="round"/>
<path d="M56.4938 95.4984C56.2882 90.4616 55.1574 85.3513 53.1015 80.1382C51.9708 77.2307 50.5465 74.2937 48.8284 71.3274C47.5215 69.0807 46.1557 66.9954 44.7166 65.0424C41.295 60.4314 37.477 56.6427 33.2772 53.7205C32.2786 53.0009 31.2508 52.3548 30.1935 51.738C23.512 47.876 17.7409 47.0243 12.8656 49.1829L11.5732 49.829C6.44822 52.7513 3.87842 58.3902 3.87842 66.7458C3.87842 75.1014 6.44822 83.7066 11.5732 92.5615C16.7129 101.416 22.9099 107.951 30.1935 112.151C37.4772 116.351 43.6888 116.997 48.8284 114.06C53.9534 111.138 56.5232 105.499 56.5232 97.1431C56.5232 96.5998 56.5085 96.0564 56.4938 95.4984ZM41.3831 101.24C38.314 102.988 34.5843 102.606 30.1935 100.065C25.8175 97.5396 22.0875 93.6188 19.0184 88.3176C15.9346 83.0311 14.4076 77.8621 14.4076 72.8252C14.4076 67.7884 15.9346 64.3962 19.0184 62.6488C22.0875 60.9013 25.8175 61.2978 30.1935 63.8235C32.5431 65.1745 34.7017 66.922 36.6695 69.066C38.3876 70.9456 39.9587 73.0896 41.3831 75.5713C43.0719 78.4642 44.2907 81.3277 45.0543 84.1618C45.6857 86.482 45.9944 88.7875 45.9944 91.0636C45.9944 96.1005 44.4522 99.4926 41.3831 101.24Z" fill="url(#paint2_linear_390_1652)" stroke="white" stroke-width="1.46847" stroke-linecap="round" stroke-linejoin="round"/>
<path d="M104.161 82.8109C104.161 82.8109 104.161 82.899 104.131 82.9431C103.941 83.9857 103.544 84.7199 102.957 85.1458L102.061 85.601C101.929 85.6304 101.811 85.6597 101.679 85.6597C101.033 85.7478 100.328 85.601 99.5647 85.2339C99.0948 85.0136 98.6102 84.7052 98.1109 84.3088C95.7026 82.4291 93.3824 80.3733 91.1503 78.1412C89.7259 76.7168 88.3456 75.2189 86.9946 73.6624C85.9813 72.4876 84.9975 71.2834 84.0576 70.0352C81.7228 67.0249 79.5638 63.8089 77.5814 60.3727L73.7637 53.794L73.367 53.1038L67.6986 56.3344L60.7381 60.314L69.417 75.7476C70.3862 77.4069 71.1057 79.081 71.5903 80.7697C72.0456 82.3557 72.2805 83.9123 72.2952 85.4101C72.3099 85.5129 72.3099 85.6157 72.3099 85.7185V112.298C72.3099 113.987 71.8253 115.132 70.8414 115.705L70.489 115.881C69.5492 116.277 68.3889 116.072 67.0526 115.308C65.5548 114.442 64.3064 113.135 63.2932 111.402C62.5443 110.095 62.0745 108.803 61.8836 107.525C61.8102 107.085 61.781 106.659 61.781 106.218V82.062L44.9373 55.424C44.6583 54.9834 44.4087 54.5282 44.1737 54.0877C43.4982 52.7954 42.9699 51.5032 42.5734 50.1962C42.0447 48.4341 41.7803 46.7453 41.7803 45.1447C41.7803 43.5441 42.0594 42.1637 42.6321 41.033C43.2048 39.9023 43.9681 39.0506 44.9373 38.5072L52.7204 34.0724L59.6809 30.1076L60.2978 29.7992C61.2083 29.4321 62.2065 29.3146 63.2932 29.4761C64.6589 29.6524 66.0836 30.181 67.5814 31.0327C68.9618 31.8404 70.2981 32.8683 71.5756 34.1459C71.6784 34.2193 71.7664 34.3221 71.8545 34.4102C73.2202 35.8052 74.4243 37.4059 75.4669 39.2268L81.649 49.8585L85.4819 56.4666C87.4937 59.9469 89.7112 63.1188 92.1195 65.9676C94.5278 68.8311 97.0975 71.2834 99.8142 73.3687C100.504 73.912 101.136 74.5141 101.679 75.1896C102.325 75.9679 102.868 76.8342 103.309 77.7887C104.146 79.5803 104.425 81.2543 104.161 82.8109Z" fill="url(#paint3_linear_390_1652)" stroke="white" stroke-width="1.46847" stroke-linecap="round" stroke-linejoin="round"/>
<path d="M130.195 138.055C129.989 133.018 128.859 127.908 126.803 122.695C125.672 119.787 124.233 116.85 122.515 113.884C121.223 111.652 119.857 109.567 118.433 107.628C115.011 102.988 111.193 99.1992 106.978 96.2769C105.98 95.5574 104.952 94.8966 103.895 94.2945C103.146 93.8686 102.412 93.4721 101.677 93.1197C97.8447 91.2254 94.3353 90.3884 91.1487 90.6086C89.5627 90.7114 88.0501 91.0785 86.6256 91.6953L85.2748 92.3708C84.7315 92.6792 84.232 93.0169 83.7474 93.3987C82.0587 94.6763 80.7224 96.3357 79.7238 98.3622C78.2994 101.255 77.5796 104.897 77.5796 109.302C77.5796 110.286 77.6091 111.285 77.6825 112.283C78.2259 119.699 80.7519 127.32 85.2748 135.118C90.4144 143.973 96.6112 150.493 103.895 154.707C111.178 158.907 117.39 159.539 122.515 156.616C127.655 153.694 130.224 148.055 130.224 139.7C130.224 139.156 130.224 138.613 130.195 138.055ZM115.084 143.797C112.015 145.544 108.286 145.148 103.895 142.622C99.5188 140.081 95.7887 136.175 92.705 130.874C89.6359 125.573 88.1088 120.419 88.1088 115.382C88.1088 110.345 89.6359 106.953 92.705 105.205C95.7887 103.458 99.5188 103.84 103.895 106.38C106.244 107.731 108.403 109.478 110.371 111.622C112.089 113.487 113.645 115.646 115.084 118.113C116.773 121.021 117.992 123.884 118.756 126.718C119.387 129.038 119.696 131.344 119.696 133.62C119.696 138.642 118.154 142.034 115.084 143.797Z" fill="url(#paint4_linear_390_1652)" stroke="white" stroke-width="1.46847" stroke-linecap="round" stroke-linejoin="round"/>
<path d="M73.3662 53.1044L67.6978 56.335C67.7859 56.4525 67.8889 56.5847 67.9771 56.7021L73.7628 53.7946L73.3662 53.1044ZM90.1067 45.6299L89.6954 45.8355C89.8863 45.8502 90.0627 45.8648 90.2389 45.8648L90.1067 45.6299Z" fill="url(#paint5_linear_390_1652)" stroke="white" stroke-width="1.46847" stroke-linecap="round" stroke-linejoin="round"/>
<path d="M45.994 91.0637C45.994 96.1005 44.4519 99.4927 41.3828 101.24C38.3137 102.988 34.584 102.606 30.1933 100.065C25.8172 97.5396 22.0872 93.6188 19.0181 88.3176C15.9343 83.0312 14.4072 77.8622 14.4072 72.8253C14.4072 67.7885 15.9343 64.3963 19.0181 62.6488C22.0872 60.9013 25.8172 61.2978 30.1933 63.8236C32.5428 65.1746 34.7013 66.9221 36.6691 69.066C38.3872 70.9457 39.9584 73.0896 41.3828 75.5713C43.0716 78.4642 44.2904 81.3277 45.054 84.1619C45.6855 86.4821 45.994 88.7876 45.994 91.0637Z" fill="url(#paint6_linear_390_1652)" stroke="white" stroke-width="1.46847" stroke-linecap="round" stroke-linejoin="round"/>
<path d="M119.696 133.62C119.696 138.642 118.154 142.035 115.085 143.797C112.016 145.544 108.286 145.148 103.895 142.622C99.5194 140.082 95.7892 136.175 92.7054 130.874C89.6363 125.573 88.1094 120.419 88.1094 115.382C88.1094 110.345 89.6363 106.953 92.7054 105.205C95.7892 103.458 99.5194 103.84 103.895 106.38C106.245 107.731 108.403 109.479 110.371 111.622C112.089 113.487 113.646 115.646 115.085 118.113C116.774 121.021 117.992 123.884 118.756 126.718C119.387 129.039 119.696 131.344 119.696 133.62Z" fill="url(#paint7_linear_390_1652)" stroke="white" stroke-width="1.46847" stroke-linecap="round" stroke-linejoin="round"/>
<path d="M159.594 125.015C159.594 133.371 157.024 139.01 151.884 141.932L150.548 142.608L122.515 156.617C127.655 153.695 130.225 148.056 130.225 139.7C130.225 139.157 130.225 138.613 130.195 138.055C129.99 133.018 128.859 127.908 126.803 122.695C125.672 119.788 124.233 116.851 122.515 113.884C121.223 111.652 119.857 109.567 118.433 107.629C115.011 102.988 111.193 99.1996 106.979 96.2774C105.98 95.5578 104.952 94.897 103.895 94.2949C103.146 93.8691 102.412 93.4726 101.678 93.1202C97.8451 91.2258 94.3356 90.3888 91.149 90.6091C89.5631 90.7119 88.0504 91.079 86.626 91.6957L91.149 89.4343L99.5632 85.2345C100.327 85.6016 101.032 85.7484 101.678 85.6603C101.81 85.6603 101.927 85.631 102.06 85.6016C102.397 85.5135 102.691 85.3666 102.955 85.1464L110.474 81.3871L121.473 75.895C125.026 75.895 128.947 77.1285 133.265 79.6102C140.548 83.8101 146.76 90.3448 151.884 99.1996C157.024 108.054 159.594 116.66 159.594 125.015Z" fill="url(#paint8_linear_390_1652)" stroke="white" stroke-width="1.46847" stroke-linecap="round" stroke-linejoin="round"/>
<path d="M133.529 68.1268C133.265 69.698 132.56 70.6232 131.429 70.9169L121.473 75.895L110.474 81.3871L102.956 85.1463C103.543 84.7205 103.94 83.9862 104.131 82.9436C104.145 82.8996 104.145 82.8555 104.16 82.8115C104.424 81.2549 104.16 79.5808 103.308 77.7893C102.867 76.8348 102.324 75.9684 101.678 75.1901C101.135 74.5146 100.503 73.9125 99.8132 73.3692C97.0965 71.284 94.5267 68.8316 92.1184 65.9681C89.7101 63.1193 87.4928 59.9474 85.481 56.4671L81.6481 49.859L75.4659 39.2273C74.4232 37.4064 73.2192 35.8058 71.8536 34.4107C71.7655 34.3226 71.6774 34.2198 71.5746 34.1464C70.297 32.8689 68.9608 31.8409 67.5805 31.0333C66.0826 30.1816 64.6579 29.6529 63.2923 29.4767C62.2056 29.3152 61.2073 29.4326 60.2969 29.7998L75.7011 22.105C75.5543 22.4574 75.4074 22.8245 75.3193 23.2504C75.0697 24.1168 74.9522 25.1153 74.9522 26.2314C74.9522 29.5501 75.9798 32.9863 78.0357 36.5547C80.1062 40.1084 82.5734 42.7223 85.481 44.3963C87.0082 45.2627 88.3887 45.7473 89.6809 45.8354H89.6953C89.8862 45.8501 90.0626 45.8648 90.2388 45.8648C91.1933 45.8501 92.0892 45.6005 92.9116 45.1306L103.543 39.8147L111.414 35.8792L114.85 41.7825C116.862 45.2627 119.08 48.4346 121.488 51.2834C123.896 54.147 126.466 56.5993 129.183 58.6845C130.68 59.8446 131.84 61.3131 132.677 63.1046C133.514 64.8961 133.794 66.5702 133.529 68.1268Z" fill="url(#paint9_linear_390_1652)" stroke="white" stroke-width="1.46847" stroke-linecap="round" stroke-linejoin="round"/>
<path d="M125.379 23.7055C125.379 27.0242 124.336 29.271 122.28 30.4457L121.634 30.7688L111.413 35.8791L103.543 39.8146L92.9109 45.1304C93.8801 44.5724 94.6143 43.7941 95.1136 42.7662C95.7157 41.6061 96.0092 40.1523 96.0092 38.3901C96.0092 35.0714 94.9668 31.6205 92.9109 28.0668C90.8404 24.5131 88.3733 21.8992 85.4805 20.2252C84.5113 19.6672 83.5863 19.2707 82.7052 19.0357C82.5143 18.977 82.3084 18.9329 82.1175 18.8889C80.884 18.6392 79.7384 18.7274 78.6812 19.1532L107.405 4.7916C109.475 3.61683 111.942 3.86648 114.85 5.54053C117.743 7.21459 120.21 9.82845 122.28 13.3821C124.336 16.9358 125.379 20.3867 125.379 23.7055Z" fill="url(#paint10_linear_390_1652)" stroke="white" stroke-width="1.46847" stroke-linecap="round" stroke-linejoin="round"/>
<path d="M56.5238 97.1436C56.5238 96.6003 56.5091 96.057 56.4944 95.4989C56.2888 90.4621 55.158 85.3518 53.1021 80.1388C51.9714 77.2312 50.5471 74.2943 48.829 71.3279C47.5221 69.0812 46.1562 66.996 44.7171 65.0429C41.2956 60.4319 37.4776 56.6433 33.2778 53.721C32.2792 53.0015 31.2514 52.3553 30.1941 51.7386C23.5126 47.8765 17.7415 47.0249 12.8662 49.1836L40.9432 35.1449C44.3941 33.1771 48.3149 32.8247 52.7203 34.0729L44.9373 38.5077C43.9681 39.051 43.2048 39.9027 42.6321 41.0334C42.0594 42.1642 41.7802 43.53 41.7802 45.1453C41.7802 46.7606 42.0447 48.4345 42.5733 50.1967C42.9698 51.5036 43.4982 52.7959 44.1737 54.0881C44.4086 54.5287 44.6583 54.984 44.9373 55.4246L61.781 82.0626V106.219C61.781 106.659 61.8101 107.085 61.8835 107.526L48.829 114.06C53.954 111.138 56.5238 105.499 56.5238 97.1436Z" fill="url(#paint11_linear_390_1652)" stroke="white" stroke-width="1.46847" stroke-linecap="round" stroke-linejoin="round"/>
<path d="M91.1501 78.1416V89.4342L86.627 91.6956L85.2762 92.3711C84.7329 92.6795 84.2336 93.0172 83.749 93.399C82.0602 94.6766 80.7239 96.336 79.7254 98.3625C78.301 101.255 77.5811 104.897 77.5811 109.303C77.5811 110.286 77.6105 111.285 77.6839 112.284L70.841 115.705C71.8249 115.132 72.3095 113.987 72.3095 112.298V85.7189C72.3095 85.6161 72.3095 85.5133 72.2948 85.4106C72.2801 83.9127 72.0451 82.3561 71.5899 80.7702C71.1053 79.0815 70.3859 77.4074 69.4167 75.748L60.7378 60.3144L67.9776 56.702L73.7633 53.7944L77.5811 60.3732C79.5636 63.8094 81.7224 67.0253 84.0572 70.0357C84.997 71.2839 85.9809 72.488 86.9942 73.6628C88.3451 75.2194 89.7257 76.7172 91.1501 78.1416Z" fill="url(#paint12_linear_390_1652)" stroke="white" stroke-width="1.46847" stroke-linecap="round" stroke-linejoin="round"/>
<path d="M70.8417 115.705L70.4893 115.881L70.8417 115.705Z" fill="url(#paint13_linear_390_1652)"/>
<path d="M70.8417 115.705L70.4893 115.881" stroke="white" stroke-width="1.46847" stroke-linecap="round" stroke-linejoin="round"/>
</g>
<defs>
<linearGradient id="paint0_linear_390_1652" x1="89.6953" y1="65.6153" x2="102.956" y2="65.6153" gradientUnits="userSpaceOnUse">
<stop stop-color="#F59E0B"/>
<stop offset="1" stop-color="#E61D2A"/>
</linearGradient>
<linearGradient id="paint1_linear_390_1652" x1="74.9531" y1="32.3076" x2="96.0107" y2="32.3076" gradientUnits="userSpaceOnUse">
<stop stop-color="#F59E0B"/>
<stop offset="1" stop-color="#E61D2A"/>
</linearGradient>
<linearGradient id="paint2_linear_390_1652" x1="3.87842" y1="81.9447" x2="56.5232" y2="81.9447" gradientUnits="userSpaceOnUse">
<stop stop-color="#F59E0B"/>
<stop offset="1" stop-color="#E61D2A"/>
</linearGradient>
<linearGradient id="paint3_linear_390_1652" x1="41.7803" y1="72.7418" x2="104.257" y2="72.7418" gradientUnits="userSpaceOnUse">
<stop stop-color="#F59E0B"/>
<stop offset="1" stop-color="#E61D2A"/>
</linearGradient>
<linearGradient id="paint4_linear_390_1652" x1="77.5796" y1="124.496" x2="130.224" y2="124.496" gradientUnits="userSpaceOnUse">
<stop stop-color="#F59E0B"/>
<stop offset="1" stop-color="#E61D2A"/>
</linearGradient>
<linearGradient id="paint5_linear_390_1652" x1="67.6978" y1="51.166" x2="90.2389" y2="51.166" gradientUnits="userSpaceOnUse">
<stop stop-color="#F59E0B"/>
<stop offset="1" stop-color="#E61D2A"/>
</linearGradient>
<linearGradient id="paint6_linear_390_1652" x1="14.4072" y1="81.9467" x2="45.994" y2="81.9467" gradientUnits="userSpaceOnUse">
<stop stop-color="#F59E0B"/>
<stop offset="1" stop-color="#E61D2A"/>
</linearGradient>
<linearGradient id="paint7_linear_390_1652" x1="88.1094" y1="124.499" x2="119.696" y2="124.499" gradientUnits="userSpaceOnUse">
<stop stop-color="#F59E0B"/>
<stop offset="1" stop-color="#E61D2A"/>
</linearGradient>
<linearGradient id="paint8_linear_390_1652" x1="86.626" y1="116.256" x2="159.594" y2="116.256" gradientUnits="userSpaceOnUse">
<stop stop-color="#F59E0B"/>
<stop offset="1" stop-color="#E61D2A"/>
</linearGradient>
<linearGradient id="paint9_linear_390_1652" x1="60.2969" y1="53.6257" x2="133.625" y2="53.6257" gradientUnits="userSpaceOnUse">
<stop stop-color="#F59E0B"/>
<stop offset="1" stop-color="#E61D2A"/>
</linearGradient>
<linearGradient id="paint10_linear_390_1652" x1="78.6812" y1="24.5977" x2="125.379" y2="24.5977" gradientUnits="userSpaceOnUse">
<stop stop-color="#F59E0B"/>
<stop offset="1" stop-color="#E61D2A"/>
</linearGradient>
<linearGradient id="paint11_linear_390_1652" x1="12.8662" y1="73.7021" x2="61.8835" y2="73.7021" gradientUnits="userSpaceOnUse">
<stop stop-color="#F59E0B"/>
<stop offset="1" stop-color="#E61D2A"/>
</linearGradient>
<linearGradient id="paint12_linear_390_1652" x1="60.7378" y1="84.7497" x2="91.1501" y2="84.7497" gradientUnits="userSpaceOnUse">
<stop stop-color="#F59E0B"/>
<stop offset="1" stop-color="#E61D2A"/>
</linearGradient>
<linearGradient id="paint13_linear_390_1652" x1="70.4893" y1="115.793" x2="70.8417" y2="115.793" gradientUnits="userSpaceOnUse">
<stop stop-color="#F59E0B"/>
<stop offset="1" stop-color="#E61D2A"/>
</linearGradient>
</defs>
</svg>
