<svg width="24" height="24" viewBox="0 0 24 24" fill="none" xmlns="http://www.w3.org/2000/svg">
<g id="iconoir:off-tag">
<g id="Group">
<path id="Vector" d="M1 15V9C1 7.4087 1.63214 5.88258 2.75736 4.75736C3.88258 3.63214 5.4087 3 7 3H17C18.5913 3 20.1174 3.63214 21.2426 4.75736C22.3679 5.88258 23 7.4087 23 9V15C23 16.5913 22.3679 18.1174 21.2426 19.2426C20.1174 20.3679 18.5913 21 17 21H7C5.4087 21 3.88258 20.3679 2.75736 19.2426C1.63214 18.1174 1 16.5913 1 15Z" stroke="#C01B1B" stroke-width="1.5"/>
<path id="Vector_2" d="M7 9C7.79565 9 8.55871 9.31607 9.12132 9.87868C9.68393 10.4413 10 11.2044 10 12C10 12.7956 9.68393 13.5587 9.12132 14.1213C8.55871 14.6839 7.79565 15 7 15C6.20435 15 5.44129 14.6839 4.87868 14.1213C4.31607 13.5587 4 12.7956 4 12C4 11.2044 4.31607 10.4413 4.87868 9.87868C5.44129 9.31607 6.20435 9 7 9Z" stroke="#C01B1B" stroke-width="1.5"/>
<path id="Vector_3" d="M12 15V9H15M17 15V9H20M12 12H14.572M17 12H19.572" stroke="#C01B1B" stroke-width="1.5" stroke-linecap="round" stroke-linejoin="round"/>
</g>
</g>
</svg>
