<svg width="20" height="20" viewBox="0 0 20 20" fill="none" xmlns="http://www.w3.org/2000/svg">
<path opacity="0.5" d="M1.6665 10.0002C1.6665 6.85766 1.6665 5.286 2.64317 4.31016C3.61984 3.33433 5.19067 3.3335 8.33317 3.3335H11.6665C14.809 3.3335 16.3807 3.3335 17.3565 4.31016C18.3323 5.28683 18.3332 6.85766 18.3332 10.0002C18.3332 13.1427 18.3332 14.7143 17.3565 15.6902C16.3798 16.666 14.809 16.6668 11.6665 16.6668H8.33317C5.19067 16.6668 3.619 16.6668 2.64317 15.6902C1.66734 14.7135 1.6665 13.1427 1.6665 10.0002Z" fill="url(#paint0_linear_595_307)"/>
<path d="M10.6247 8.3335C10.6247 8.16774 10.5588 8.00876 10.4416 7.89155C10.3244 7.77434 10.1655 7.7085 9.9997 7.7085C9.83394 7.7085 9.67497 7.77434 9.55775 7.89155C9.44055 8.00876 9.3747 8.16774 9.3747 8.3335V8.91766L8.86886 8.626C8.79772 8.58153 8.71835 8.55185 8.63548 8.53871C8.55262 8.52558 8.46796 8.52926 8.38655 8.54954C8.30514 8.56982 8.22865 8.60628 8.16163 8.65676C8.09462 8.70723 8.03845 8.77068 7.99647 8.84332C7.9545 8.91596 7.92758 8.99631 7.91732 9.07958C7.90706 9.16285 7.91367 9.24733 7.93676 9.32799C7.95984 9.40864 7.99893 9.48383 8.05169 9.54906C8.10446 9.61429 8.16981 9.66823 8.24386 9.70766L8.7497 9.99933L8.24386 10.2918C8.1002 10.3747 7.99535 10.5113 7.95238 10.6715C7.9094 10.8316 7.93182 11.0023 8.0147 11.146C8.09758 11.2897 8.23413 11.3945 8.39432 11.4375C8.5545 11.4805 8.7252 11.458 8.86886 11.3752L9.3747 11.0827V11.6668C9.3747 11.8326 9.44055 11.9916 9.55775 12.1088C9.67497 12.226 9.83394 12.2918 9.9997 12.2918C10.1655 12.2918 10.3244 12.226 10.4416 12.1088C10.5588 11.9916 10.6247 11.8326 10.6247 11.6668V11.0835L11.1305 11.3752C11.2742 11.458 11.4449 11.4805 11.6051 11.4375C11.7653 11.3945 11.9018 11.2897 11.9847 11.146C12.0676 11.0023 12.09 10.8316 12.047 10.6715C12.004 10.5113 11.8992 10.3747 11.7555 10.2918L11.2497 10.0002L11.7555 9.7085C11.8992 9.62562 12.004 9.48906 12.047 9.32887C12.09 9.16869 12.0676 8.99799 11.9847 8.85433C11.9018 8.71067 11.7653 8.60582 11.6051 8.56284C11.4449 8.51986 11.2742 8.54228 11.1305 8.62516L10.6247 8.91683V8.3335ZM5.61053 7.7085C5.77629 7.7085 5.93526 7.77434 6.05247 7.89155C6.16968 8.00876 6.23553 8.16774 6.23553 8.3335V8.91683L6.74053 8.62516C6.88419 8.54228 7.05489 8.51986 7.21507 8.56284C7.37526 8.60582 7.51182 8.71067 7.5947 8.85433C7.67758 8.99799 7.69999 9.16869 7.65702 9.32887C7.61404 9.48906 7.50919 9.62562 7.36553 9.7085L6.8597 10.0002L7.36553 10.2918C7.43666 10.3329 7.49902 10.3875 7.54903 10.4527C7.59904 10.5178 7.63574 10.5921 7.65702 10.6715C7.6783 10.7508 7.68375 10.8335 7.67305 10.9149C7.66236 10.9963 7.63574 11.0749 7.5947 11.146C7.55366 11.2171 7.49901 11.2795 7.43388 11.3295C7.36874 11.3795 7.29439 11.4162 7.21507 11.4375C7.13576 11.4588 7.05303 11.4642 6.9716 11.4535C6.89018 11.4428 6.81166 11.4162 6.74053 11.3752L6.23553 11.0835V11.6668C6.23553 11.8326 6.16968 11.9916 6.05247 12.1088C5.93526 12.226 5.77629 12.2918 5.61053 12.2918C5.44477 12.2918 5.2858 12.226 5.16859 12.1088C5.05138 11.9916 4.98553 11.8326 4.98553 11.6668V11.0827L4.47886 11.3743C4.33586 11.4505 4.16888 11.4681 4.01312 11.4235C3.85736 11.379 3.72499 11.2756 3.64394 11.1354C3.56288 10.9951 3.53947 10.8288 3.57863 10.6716C3.61779 10.5144 3.71647 10.3785 3.85386 10.2927L4.3597 10.0002L3.85386 9.7085C3.78273 9.66746 3.72038 9.61281 3.67036 9.54768C3.62035 9.48254 3.58366 9.40819 3.56238 9.32887C3.5411 9.24956 3.53565 9.16683 3.54634 9.0854C3.55703 9.00398 3.58366 8.92546 3.6247 8.85433C3.66573 8.7832 3.72038 8.72084 3.78552 8.67083C3.85065 8.62082 3.925 8.58412 4.00432 8.56284C4.08363 8.54156 4.16637 8.53611 4.24779 8.54681C4.32921 8.5575 4.40773 8.58413 4.47886 8.62516L4.98553 8.91766V8.3335C4.98553 8.16774 5.05138 8.00876 5.16859 7.89155C5.2858 7.77434 5.44477 7.7085 5.61053 7.7085ZM15.0147 8.3335C15.0147 8.16774 14.9488 8.00876 14.8316 7.89155C14.7144 7.77434 14.5555 7.7085 14.3897 7.7085C14.2239 7.7085 14.065 7.77434 13.9478 7.89155C13.8305 8.00876 13.7647 8.16774 13.7647 8.3335V8.91766L13.2589 8.626C13.1877 8.58153 13.1083 8.55185 13.0255 8.53871C12.9426 8.52558 12.858 8.52926 12.7766 8.54954C12.6951 8.56982 12.6187 8.60628 12.5516 8.65676C12.4846 8.70723 12.4284 8.77068 12.3865 8.84332C12.3445 8.91596 12.3176 8.99631 12.3073 9.07958C12.2971 9.16285 12.3037 9.24733 12.3268 9.32799C12.3498 9.40864 12.3889 9.48383 12.4417 9.54906C12.4945 9.61429 12.5598 9.66823 12.6339 9.70766L13.1397 9.99933L12.6339 10.2918C12.5627 10.3329 12.5004 10.3875 12.4504 10.4527C12.4004 10.5178 12.3637 10.5921 12.3424 10.6715C12.3211 10.7508 12.3156 10.8335 12.3263 10.9149C12.337 10.9963 12.3637 11.0749 12.4047 11.146C12.4457 11.2171 12.5004 11.2795 12.5655 11.3295C12.6307 11.3795 12.705 11.4162 12.7843 11.4375C12.8636 11.4588 12.9464 11.4642 13.0278 11.4535C13.1092 11.4428 13.1877 11.4162 13.2589 11.3752L13.7647 11.0827V11.6668C13.7647 11.8326 13.8305 11.9916 13.9478 12.1088C14.065 12.226 14.2239 12.2918 14.3897 12.2918C14.5555 12.2918 14.7144 12.226 14.8316 12.1088C14.9488 11.9916 15.0147 11.8326 15.0147 11.6668V11.0835L15.5205 11.3752C15.6642 11.458 15.8349 11.4805 15.9951 11.4375C16.1553 11.3945 16.2918 11.2897 16.3747 11.146C16.4576 11.0023 16.48 10.8316 16.437 10.6715C16.394 10.5113 16.2892 10.3747 16.1455 10.2918L15.6397 10.0002L16.1455 9.7085C16.2167 9.66746 16.279 9.61281 16.329 9.54768C16.379 9.48254 16.4157 9.40819 16.437 9.32887C16.4583 9.24956 16.4637 9.16683 16.4531 9.0854C16.4424 9.00398 16.4157 8.92546 16.3747 8.85433C16.3337 8.7832 16.279 8.72084 16.2139 8.67083C16.1487 8.62082 16.0744 8.58412 15.9951 8.56284C15.9158 8.54156 15.833 8.53611 15.7516 8.54681C15.6702 8.5575 15.5917 8.58413 15.5205 8.62516L15.0147 8.91683V8.3335Z" fill="url(#paint1_linear_595_307)"/>
<defs>
<linearGradient id="paint0_linear_595_307" x1="1.6665" y1="10.0002" x2="18.3332" y2="10.0002" gradientUnits="userSpaceOnUse">
<stop stop-color="#F59E0B"/>
<stop offset="1" stop-color="#E61D2A"/>
</linearGradient>
<linearGradient id="paint1_linear_595_307" x1="3.54102" y1="10.0002" x2="16.4584" y2="10.0002" gradientUnits="userSpaceOnUse">
<stop stop-color="#F59E0B"/>
<stop offset="1" stop-color="#E61D2A"/>
</linearGradient>
</defs>
</svg>
