<svg width="96" height="99" viewBox="0 0 96 99" fill="none" xmlns="http://www.w3.org/2000/svg">
<path d="M76.8298 103.832C76.8298 104.908 76.5123 105.622 75.8773 105.984C75.2512 106.345 74.4664 106.257 73.5316 105.71L24.1192 77.1812C22.3025 76.1405 20.7504 74.5001 19.4628 72.2778C18.1753 70.0466 17.5227 67.8948 17.5227 65.8223V9.11683C17.5227 8.04093 17.84 7.32669 18.475 6.96511L18.6692 6.8681C19.2601 6.62999 19.9832 6.74455 20.821 7.23841C21.7558 7.77636 22.5406 8.5877 23.1667 9.67242C23.8017 10.766 24.1192 11.842 24.1192 12.9179V69.6233L73.5316 98.1524C74.4664 98.6904 75.2512 99.5105 75.8773 100.595C76.5123 101.689 76.8298 102.765 76.8298 103.832Z" fill="#102325" stroke="white" stroke-width="0.88189" stroke-linecap="round" stroke-linejoin="round"/>
<path d="M57.0579 35.7147V81.0791C57.0579 82.155 56.7406 82.8694 56.1145 83.2309C55.4795 83.5925 54.6944 83.4955 53.7685 82.9575L47.1719 79.1566C46.2459 78.6186 45.4612 77.8073 44.8262 76.7138C44.2 75.629 43.8826 74.5443 43.8826 73.4772V28.1128C43.8826 27.9188 43.8914 27.7336 43.9178 27.566C44.006 26.79 44.3147 26.2608 44.8262 25.961C45.4612 25.5994 46.2459 25.6964 47.1719 26.2344L47.5072 26.4284L53.7685 30.0353C54.6944 30.5733 55.4795 31.3846 56.1145 32.4782C56.7406 33.5629 57.0579 34.6476 57.0579 35.7147Z" fill="#102325" stroke="white" stroke-width="0.88189" stroke-linecap="round" stroke-linejoin="round"/>
<path d="M94.4675 95.0123C94.4675 96.0882 94.15 96.8026 93.515 97.1641L75.8772 105.983C76.5122 105.621 76.8297 104.907 76.8297 103.831C76.8297 102.755 76.5122 101.688 75.8772 100.595C75.2511 99.51 74.4662 98.6898 73.5314 98.1519L24.1191 69.6226L28.4933 67.4355C29.1018 68.4056 29.8426 69.1376 30.7068 69.6491L37.2946 73.4501C38.2294 73.9881 39.0053 74.0762 39.6403 73.7146L43.8822 71.5981V73.4765C43.8822 74.5436 44.1998 75.6283 44.8259 76.713C45.4609 77.8066 46.2457 78.618 47.1716 79.1559L53.7682 82.9568C54.6942 83.4948 55.4791 83.5919 56.1141 83.2303L60.3561 81.1137V82.9833C60.3561 84.0592 60.6734 85.1352 61.2995 86.2199C61.9345 87.3134 62.7107 88.1248 63.6455 88.6627L70.2331 92.4725C71.1679 93.0104 71.9528 93.0986 72.5878 92.7371L78.6904 89.6857L85.7016 86.1758L91.1692 89.333C92.104 89.8709 92.8889 90.6911 93.515 91.7758C94.15 92.8693 94.4675 93.9452 94.4675 95.0123Z" fill="#102325" stroke="white" stroke-width="0.88189" stroke-linecap="round" stroke-linejoin="round"/>
<path d="M91.1703 70.4342V81.7752C91.1703 82.8423 90.8527 83.5567 90.2266 83.9183L90.0327 84.0153L85.7027 86.1759L78.6915 89.6859L72.5888 92.7372C73.2149 92.3756 73.5325 91.6613 73.5325 90.5942V79.2531C73.5325 79.2531 73.5325 79.1825 73.5237 79.1473C73.5149 78.1066 73.1973 77.0659 72.5888 76.0077C72.4301 75.7343 72.2625 75.4785 72.0861 75.2492C71.5482 74.5349 70.9398 73.9705 70.2342 73.5648L63.6466 69.7639C62.8088 69.2788 62.0943 69.1642 61.4946 69.4023L62.9675 68.6615L74.6964 62.8058L78.9384 60.6804C79.5734 60.3188 80.3496 60.407 81.2844 60.945L87.872 64.7459C88.8068 65.2927 89.5916 66.104 90.2266 67.1888C90.8527 68.2823 91.1703 69.3583 91.1703 70.4342Z" fill="#102325" stroke="white" stroke-width="0.88189" stroke-linecap="round" stroke-linejoin="round"/>
<path d="M40.5829 45.106V71.5715C40.5829 72.6386 40.2742 73.3617 39.6392 73.7145C39.0042 74.0761 38.2283 73.9879 37.2935 73.4499L30.7057 69.649C29.8415 69.1375 29.1007 68.4055 28.4922 67.4354C28.4393 67.3649 28.3953 67.2855 28.3512 67.2062C27.725 66.1126 27.4075 65.0367 27.4075 63.9608V37.5041C27.4075 36.4282 27.725 35.7139 28.3512 35.3523L28.5452 35.2553C29.1449 35.0172 29.8679 35.1318 30.7057 35.6257L35.1594 38.1919L37.2935 39.4266C38.2283 39.9646 39.0042 40.7759 39.6392 41.8695C40.2742 42.9542 40.5829 44.0389 40.5829 45.106Z" fill="#102325" stroke="white" stroke-width="0.88189" stroke-linecap="round" stroke-linejoin="round"/>
<path d="M73.5315 79.2533V90.5943C73.5315 91.6614 73.214 92.3757 72.5878 92.7373C71.9529 93.0989 71.1681 93.0107 70.2333 92.4727L63.6456 88.663C62.7108 88.125 61.9346 87.3137 61.2996 86.2201C60.6735 85.1354 60.3562 84.0596 60.3562 82.9837V71.6426C60.3562 71.6426 60.3562 71.572 60.3562 71.5456C60.365 70.5314 60.6823 69.8435 61.2908 69.4996L61.4848 69.4026C62.0844 69.1645 62.7989 69.2791 63.6367 69.7642L70.2245 73.5651C70.93 73.9708 71.5383 74.5352 72.0763 75.2495C72.2526 75.4788 72.4203 75.7346 72.579 76.0079C73.1875 77.0662 73.5051 78.1068 73.5139 79.1475C73.5227 79.1827 73.5227 79.218 73.5227 79.2533H73.5315Z" fill="#102325" stroke="white" stroke-width="0.88189" stroke-linecap="round" stroke-linejoin="round"/>
<path d="M74.6959 26.8954V62.8059L62.9669 68.6617L61.494 69.4025L61.3001 69.4995C60.6916 69.8434 60.374 70.5313 60.3652 71.5454C60.3652 71.5719 60.3652 71.6072 60.3652 71.6425V81.1139L56.1235 83.2305C56.7496 82.8689 57.0669 82.1546 57.0669 81.0787V35.7143C57.0669 34.6472 56.7496 33.5625 56.1235 32.4777C55.4885 31.3842 54.7035 30.5728 53.7775 30.0349L47.5162 26.428L47.181 26.2339C46.255 25.696 45.4702 25.599 44.8352 25.9606L62.473 17.1417C63.108 16.7801 63.8928 16.8771 64.8188 17.4151L71.4153 21.216C72.3413 21.754 73.1263 22.5653 73.7613 23.6588C74.3874 24.7436 74.7047 25.8283 74.7047 26.8954H74.6959Z" fill="#102325" stroke="white" stroke-width="0.88189" stroke-linecap="round" stroke-linejoin="round"/>
<path d="M43.917 27.5654C43.8905 27.733 43.8816 27.9182 43.8816 28.1122V71.5981L39.6397 73.7146C40.2747 73.3619 40.5834 72.6388 40.5834 71.5717V45.1062C40.5834 44.0391 40.2747 42.9543 39.6397 41.8696C39.0048 40.7761 38.2288 39.9647 37.294 39.4268L35.1598 38.1921L30.7063 35.6259C29.8685 35.132 29.1453 35.0173 28.5457 35.2554L41.7564 28.6501L43.917 27.5654Z" fill="#102325" stroke="white" stroke-width="0.88189" stroke-linecap="round" stroke-linejoin="round"/>
<path d="M41.7575 4.09844V28.6502L28.5468 35.2556L28.3528 35.3525C27.7267 35.7141 27.4091 36.4285 27.4091 37.5044V63.9611C27.4091 65.037 27.7267 66.1128 28.3528 67.2064C28.3969 67.2857 28.4409 67.3652 28.4938 67.4358L24.1197 69.6228V12.9173C24.1197 11.8414 23.8022 10.7655 23.1672 9.67197C22.5411 8.58725 21.7562 7.77582 20.8214 7.23787C19.9836 6.74401 19.2605 6.62945 18.6697 6.86757L36.1133 -1.85432C36.7394 -2.21589 37.5245 -2.12776 38.4593 -1.58099C39.3941 -1.04304 40.1789 -0.231692 40.805 0.853032C41.44 1.94658 41.7575 3.02253 41.7575 4.09844Z" fill="#102325" stroke="white" stroke-width="0.88189" stroke-linecap="round" stroke-linejoin="round"/>
</svg>
