<svg width="16" height="16" viewBox="0 0 16 16" fill="none" xmlns="http://www.w3.org/2000/svg">
<g clip-path="url(#clip0_267_983)">
<path d="M8.00008 13.9998C8.78801 13.9998 9.56823 13.8446 10.2962 13.5431C11.0241 13.2416 11.6856 12.7996 12.2427 12.2425C12.7999 11.6853 13.2418 11.0239 13.5434 10.2959C13.8449 9.56798 14.0001 8.78777 14.0001 7.99984C14.0001 7.21191 13.8449 6.43169 13.5434 5.70374C13.2418 4.97578 12.7999 4.31435 12.2427 3.7572C11.6856 3.20004 11.0241 2.75809 10.2962 2.45656C9.56823 2.15503 8.78801 1.99984 8.00008 1.99984C6.40878 1.99984 4.88266 2.63198 3.75744 3.7572C2.63222 4.88241 2.00008 6.40854 2.00008 7.99984C2.00008 9.59114 2.63222 11.1173 3.75744 12.2425C4.88266 13.3677 6.40878 13.9998 8.00008 13.9998ZM15.3334 7.99984C15.3334 12.0498 12.0501 15.3332 8.00008 15.3332C3.95008 15.3332 0.666748 12.0498 0.666748 7.99984C0.666748 3.94984 3.95008 0.666504 8.00008 0.666504C12.0501 0.666504 15.3334 3.94984 15.3334 7.99984ZM10.0001 10.9425L7.33342 8.27584V3.6665H8.66675V7.72384L10.9427 9.99984L10.0001 10.9425Z" fill="#419816"/>
</g>
<defs>
<clipPath id="clip0_267_983">
<rect width="16" height="16" fill="white"/>
</clipPath>
</defs>
</svg>
