<svg width="12" height="13" viewBox="0 0 12 13" fill="none" xmlns="http://www.w3.org/2000/svg">
<g clip-path="url(#clip0_207_161)">
<path opacity="0.5" d="M7.95814 5.11133C8.97471 5.11694 9.5253 5.16227 9.88426 5.52123C10.2951 5.93207 10.2951 6.59296 10.2951 7.91474V8.38213C10.2951 9.70438 10.2951 10.3653 9.88426 10.7761C9.47389 11.1865 8.81253 11.1865 7.49074 11.1865H3.75161C2.42983 11.1865 1.76847 11.1865 1.3581 10.7761C0.947266 10.3648 0.947266 9.70438 0.947266 8.38213V7.91474C0.947266 6.59296 0.947266 5.93207 1.3581 5.52123C1.71706 5.16227 2.26765 5.11694 3.28422 5.11133" stroke="#F59E0B" stroke-width="0.701087" stroke-linecap="round"/>
<path d="M5.62092 7.91471V1.83862M5.62092 1.83862L7.0231 3.47449M5.62092 1.83862L4.21875 3.47449" stroke="#F59E0B" stroke-width="0.701087" stroke-linecap="round" stroke-linejoin="round"/>
</g>
<defs>
<clipPath id="clip0_207_161">
<rect width="11.2174" height="11.2174" fill="white" transform="translate(0.012207 0.903809)"/>
</clipPath>
</defs>
</svg>
