<svg width="22" height="22" viewBox="0 0 22 22" fill="none" xmlns="http://www.w3.org/2000/svg">
<path opacity="0.2" d="M15.8125 5.5V17.386L14.8947 15.9844C14.6901 15.6321 14.3671 15.364 13.9832 15.2277C13.5993 15.0915 13.1795 15.096 12.7987 15.2405C12.4178 15.385 12.1007 15.6601 11.9038 16.0167C11.7069 16.3733 11.643 16.7882 11.7236 17.1875H4.8125V5.5C4.8125 5.31766 4.88493 5.1428 5.01386 5.01386C5.1428 4.88493 5.31766 4.8125 5.5 4.8125H15.125C15.3073 4.8125 15.4822 4.88493 15.6111 5.01386C15.7401 5.1428 15.8125 5.31766 15.8125 5.5Z" fill="white"/>
<path d="M19.9375 17.0715V20.625C19.9375 20.8073 19.8651 20.9822 19.7361 21.1111C19.6072 21.2401 19.4323 21.3125 19.25 21.3125C19.0677 21.3125 18.8928 21.2401 18.7639 21.1111C18.6349 20.9822 18.5625 20.8073 18.5625 20.625V17.0715C18.5593 16.189 18.3745 15.3167 18.0197 14.5087C17.6649 13.7008 17.1476 12.9745 16.5 12.375V17.3895C16.4999 17.5374 16.452 17.6814 16.3636 17.8C16.2751 17.9185 16.1507 18.0054 16.0089 18.0477C15.8672 18.09 15.7155 18.0854 15.5766 18.0346C15.4376 17.9838 15.3187 17.8896 15.2376 17.7659L14.3198 16.3642C14.3129 16.3539 14.306 16.3427 14.3 16.3316C14.1652 16.0935 13.9413 15.9187 13.6777 15.8457C13.414 15.7727 13.1321 15.8075 12.8941 15.9423C12.656 16.0771 12.4812 16.3009 12.4082 16.5646C12.3352 16.8283 12.37 17.1101 12.5048 17.3482L14.4066 20.252C14.5064 20.4046 14.5415 20.5906 14.5042 20.7691C14.4669 20.9476 14.3602 21.104 14.2076 21.2038C14.055 21.3036 13.869 21.3387 13.6905 21.3014C13.512 21.2641 13.3557 21.1574 13.2559 21.0048L11.3429 18.083L11.3223 18.0503C11.0261 17.5428 10.9259 16.9446 11.0405 16.3683C11.1551 15.792 11.4766 15.2776 11.9443 14.922C12.412 14.5664 12.9937 14.3943 13.5796 14.438C14.1655 14.4817 14.7152 14.7383 15.125 15.1594V5.5H13.75C13.5677 5.5 13.3928 5.42757 13.2639 5.29864C13.1349 5.1697 13.0625 4.99484 13.0625 4.8125C13.0625 4.63016 13.1349 4.4553 13.2639 4.32636C13.3928 4.19743 13.5677 4.125 13.75 4.125H15.125C15.4897 4.125 15.8394 4.26987 16.0973 4.52773C16.3551 4.78559 16.5 5.13533 16.5 5.5V10.6236C17.5552 11.3367 18.4201 12.297 19.0192 13.4208C19.6184 14.5446 19.9336 15.7979 19.9375 17.0715ZM7.5625 4.8125C7.5625 4.63016 7.49007 4.4553 7.36114 4.32636C7.2322 4.19743 7.05734 4.125 6.875 4.125H5.5C5.13533 4.125 4.78559 4.26987 4.52773 4.52773C4.26987 4.78559 4.125 5.13533 4.125 5.5V17.1875C4.125 17.3698 4.19743 17.5447 4.32636 17.6736C4.4553 17.8026 4.63016 17.875 4.8125 17.875C4.99484 17.875 5.1697 17.8026 5.29864 17.6736C5.42757 17.5447 5.5 17.3698 5.5 17.1875V5.5H6.875C7.05734 5.5 7.2322 5.42757 7.36114 5.29864C7.49007 5.1697 7.5625 4.99484 7.5625 4.8125ZM13.5489 8.45109C13.4851 8.38717 13.4092 8.33646 13.3258 8.30187C13.2423 8.26727 13.1528 8.24946 13.0625 8.24946C12.9722 8.24946 12.8827 8.26727 12.7992 8.30187C12.7158 8.33646 12.6399 8.38717 12.5761 8.45109L11 10.028V1.375C11 1.19266 10.9276 1.0178 10.7986 0.888864C10.6697 0.759933 10.4948 0.6875 10.3125 0.6875C10.1302 0.6875 9.9553 0.759933 9.82636 0.888864C9.69743 1.0178 9.625 1.19266 9.625 1.375V10.028L8.04891 8.45109C7.9199 8.32209 7.74494 8.24962 7.5625 8.24962C7.38006 8.24962 7.2051 8.32209 7.07609 8.45109C6.94709 8.5801 6.87462 8.75506 6.87462 8.9375C6.87462 9.11994 6.94709 9.2949 7.07609 9.42391L9.82609 12.1739C9.88994 12.2378 9.96577 12.2885 10.0492 12.3231C10.1327 12.3577 10.2222 12.3755 10.3125 12.3755C10.4028 12.3755 10.4923 12.3577 10.5758 12.3231C10.6592 12.2885 10.7351 12.2378 10.7989 12.1739L13.5489 9.42391C13.6128 9.36006 13.6635 9.28423 13.6981 9.20077C13.7327 9.11731 13.7505 9.02785 13.7505 8.9375C13.7505 8.84715 13.7327 8.75769 13.6981 8.67423C13.6635 8.59077 13.6128 8.51494 13.5489 8.45109Z" fill="white"/>
</svg>
